<?xml version="1.0" encoding="utf-8" standalone="no"?>
<!DOCTYPE svg PUBLIC "-//W3C//DTD SVG 1.1//EN"
  "http://www.w3.org/Graphics/SVG/1.1/DTD/svg11.dtd">
<svg xmlns:xlink="http://www.w3.org/1999/xlink" width="460.8pt" height="345.6pt" viewBox="0 0 460.8 345.6" xmlns="http://www.w3.org/2000/svg" version="1.1">
 <metadata>
  <rdf:RDF xmlns:dc="http://purl.org/dc/elements/1.1/" xmlns:cc="http://creativecommons.org/ns#" xmlns:rdf="http://www.w3.org/1999/02/22-rdf-syntax-ns#">
   <cc:Work>
    <dc:type rdf:resource="http://purl.org/dc/dcmitype/StillImage"/>
    <dc:date>2024-05-01T19:58:15.983320</dc:date>
    <dc:format>image/svg+xml</dc:format>
    <dc:creator>
     <cc:Agent>
      <dc:title>Matplotlib v3.5.1, https://matplotlib.org/</dc:title>
     </cc:Agent>
    </dc:creator>
   </cc:Work>
  </rdf:RDF>
 </metadata>
 <defs>
  <style type="text/css">*{stroke-linejoin: round; stroke-linecap: butt}</style>
 </defs>
 <g id="figure_1">
  <g id="patch_1">
   <path d="M 0 345.6 
L 460.8 345.6 
L 460.8 0 
L 0 0 
z
" style="fill: #ffffff"/>
  </g>
  <g id="axes_1">
   <g id="patch_2">
    <path d="M 57.6 307.584 
L 414.72 307.584 
L 414.72 41.472 
L 57.6 41.472 
z
" style="fill: #ffffff"/>
   </g>
   <g id="PathCollection_1">
    <defs>
     <path id="mb946515552" d="M 0 3 
C 0.795609 3 1.55874 2.683901 2.12132 2.12132 
C 2.683901 1.55874 3 0.795609 3 0 
C 3 -0.795609 2.683901 -1.55874 2.12132 -2.12132 
C 1.55874 -2.683901 0.795609 -3 0 -3 
C -0.795609 -3 -1.55874 -2.683901 -2.12132 -2.12132 
C -2.683901 -1.55874 -3 -0.795609 -3 0 
C -3 0.795609 -2.683901 1.55874 -2.12132 2.12132 
C -1.55874 2.683901 -0.795609 3 0 3 
z
" style="stroke: #1f77b4"/>
    </defs>
    <g clip-path="url(#p467f7e2b68)">
     <use xlink:href="#mb946515552" x="73.832727" y="230.702056" style="fill: #1f77b4; stroke: #1f77b4"/>
     <use xlink:href="#mb946515552" x="77.112066" y="228.684883" style="fill: #1f77b4; stroke: #1f77b4"/>
     <use xlink:href="#mb946515552" x="80.391405" y="207.262156" style="fill: #1f77b4; stroke: #1f77b4"/>
     <use xlink:href="#mb946515552" x="83.670744" y="188.018213" style="fill: #1f77b4; stroke: #1f77b4"/>
     <use xlink:href="#mb946515552" x="86.950083" y="234.479016" style="fill: #1f77b4; stroke: #1f77b4"/>
     <use xlink:href="#mb946515552" x="90.229421" y="160.415277" style="fill: #1f77b4; stroke: #1f77b4"/>
     <use xlink:href="#mb946515552" x="93.50876" y="199.947662" style="fill: #1f77b4; stroke: #1f77b4"/>
     <use xlink:href="#mb946515552" x="96.788099" y="210.153236" style="fill: #1f77b4; stroke: #1f77b4"/>
     <use xlink:href="#mb946515552" x="100.067438" y="233.844535" style="fill: #1f77b4; stroke: #1f77b4"/>
     <use xlink:href="#mb946515552" x="103.346777" y="151.712106" style="fill: #1f77b4; stroke: #1f77b4"/>
     <use xlink:href="#mb946515552" x="106.626116" y="219.817107" style="fill: #1f77b4; stroke: #1f77b4"/>
     <use xlink:href="#mb946515552" x="109.905455" y="215.728892" style="fill: #1f77b4; stroke: #1f77b4"/>
     <use xlink:href="#mb946515552" x="113.184793" y="205.517332" style="fill: #1f77b4; stroke: #1f77b4"/>
     <use xlink:href="#mb946515552" x="116.464132" y="225.871617" style="fill: #1f77b4; stroke: #1f77b4"/>
     <use xlink:href="#mb946515552" x="119.743471" y="238.297876" style="fill: #1f77b4; stroke: #1f77b4"/>
     <use xlink:href="#mb946515552" x="123.02281" y="223.181056" style="fill: #1f77b4; stroke: #1f77b4"/>
     <use xlink:href="#mb946515552" x="126.302149" y="206.603731" style="fill: #1f77b4; stroke: #1f77b4"/>
     <use xlink:href="#mb946515552" x="129.581488" y="223.064335" style="fill: #1f77b4; stroke: #1f77b4"/>
     <use xlink:href="#mb946515552" x="132.860826" y="158.80513" style="fill: #1f77b4; stroke: #1f77b4"/>
     <use xlink:href="#mb946515552" x="136.140165" y="226.006294" style="fill: #1f77b4; stroke: #1f77b4"/>
     <use xlink:href="#mb946515552" x="139.419504" y="226.889181" style="fill: #1f77b4; stroke: #1f77b4"/>
     <use xlink:href="#mb946515552" x="142.698843" y="53.568" style="fill: #1f77b4; stroke: #1f77b4"/>
     <use xlink:href="#mb946515552" x="145.978182" y="225.018658" style="fill: #1f77b4; stroke: #1f77b4"/>
     <use xlink:href="#mb946515552" x="149.257521" y="227.589505" style="fill: #1f77b4; stroke: #1f77b4"/>
     <use xlink:href="#mb946515552" x="152.53686" y="219.024005" style="fill: #1f77b4; stroke: #1f77b4"/>
     <use xlink:href="#mb946515552" x="155.816198" y="206.681545" style="fill: #1f77b4; stroke: #1f77b4"/>
     <use xlink:href="#mb946515552" x="159.095537" y="220.149312" style="fill: #1f77b4; stroke: #1f77b4"/>
     <use xlink:href="#mb946515552" x="162.374876" y="196.541813" style="fill: #1f77b4; stroke: #1f77b4"/>
     <use xlink:href="#mb946515552" x="165.654215" y="213.60697" style="fill: #1f77b4; stroke: #1f77b4"/>
     <use xlink:href="#mb946515552" x="168.933554" y="161.286192" style="fill: #1f77b4; stroke: #1f77b4"/>
     <use xlink:href="#mb946515552" x="172.212893" y="206.017135" style="fill: #1f77b4; stroke: #1f77b4"/>
     <use xlink:href="#mb946515552" x="175.492231" y="240.44374" style="fill: #1f77b4; stroke: #1f77b4"/>
     <use xlink:href="#mb946515552" x="178.77157" y="136.47258" style="fill: #1f77b4; stroke: #1f77b4"/>
     <use xlink:href="#mb946515552" x="182.050909" y="227.400956" style="fill: #1f77b4; stroke: #1f77b4"/>
     <use xlink:href="#mb946515552" x="185.330248" y="236.047263" style="fill: #1f77b4; stroke: #1f77b4"/>
     <use xlink:href="#mb946515552" x="188.609587" y="236.083177" style="fill: #1f77b4; stroke: #1f77b4"/>
     <use xlink:href="#mb946515552" x="191.888926" y="136.688064" style="fill: #1f77b4; stroke: #1f77b4"/>
     <use xlink:href="#mb946515552" x="195.168264" y="206.103928" style="fill: #1f77b4; stroke: #1f77b4"/>
     <use xlink:href="#mb946515552" x="198.447603" y="229.840119" style="fill: #1f77b4; stroke: #1f77b4"/>
     <use xlink:href="#mb946515552" x="201.726942" y="226.45522" style="fill: #1f77b4; stroke: #1f77b4"/>
     <use xlink:href="#mb946515552" x="205.006281" y="194.497705" style="fill: #1f77b4; stroke: #1f77b4"/>
     <use xlink:href="#mb946515552" x="208.28562" y="219.290368" style="fill: #1f77b4; stroke: #1f77b4"/>
     <use xlink:href="#mb946515552" x="211.564959" y="226.278642" style="fill: #1f77b4; stroke: #1f77b4"/>
     <use xlink:href="#mb946515552" x="214.844298" y="228.241944" style="fill: #1f77b4; stroke: #1f77b4"/>
     <use xlink:href="#mb946515552" x="218.123636" y="222.780016" style="fill: #1f77b4; stroke: #1f77b4"/>
     <use xlink:href="#mb946515552" x="221.402975" y="233.751757" style="fill: #1f77b4; stroke: #1f77b4"/>
     <use xlink:href="#mb946515552" x="224.682314" y="235.454681" style="fill: #1f77b4; stroke: #1f77b4"/>
     <use xlink:href="#mb946515552" x="227.961653" y="168.483966" style="fill: #1f77b4; stroke: #1f77b4"/>
     <use xlink:href="#mb946515552" x="231.240992" y="236.008356" style="fill: #1f77b4; stroke: #1f77b4"/>
     <use xlink:href="#mb946515552" x="234.520331" y="207.375883" style="fill: #1f77b4; stroke: #1f77b4"/>
     <use xlink:href="#mb946515552" x="237.799669" y="218.221925" style="fill: #1f77b4; stroke: #1f77b4"/>
     <use xlink:href="#mb946515552" x="241.079008" y="237.663395" style="fill: #1f77b4; stroke: #1f77b4"/>
     <use xlink:href="#mb946515552" x="244.358347" y="167.104268" style="fill: #1f77b4; stroke: #1f77b4"/>
     <use xlink:href="#mb946515552" x="247.637686" y="231.815391" style="fill: #1f77b4; stroke: #1f77b4"/>
     <use xlink:href="#mb946515552" x="250.917025" y="199.95664" style="fill: #1f77b4; stroke: #1f77b4"/>
     <use xlink:href="#mb946515552" x="254.196364" y="233.464444" style="fill: #1f77b4; stroke: #1f77b4"/>
     <use xlink:href="#mb946515552" x="257.475702" y="238.57621" style="fill: #1f77b4; stroke: #1f77b4"/>
     <use xlink:href="#mb946515552" x="260.755041" y="187.458553" style="fill: #1f77b4; stroke: #1f77b4"/>
     <use xlink:href="#mb946515552" x="264.03438" y="187.416653" style="fill: #1f77b4; stroke: #1f77b4"/>
     <use xlink:href="#mb946515552" x="267.313719" y="162.204993" style="fill: #1f77b4; stroke: #1f77b4"/>
     <use xlink:href="#mb946515552" x="270.593058" y="214.415036" style="fill: #1f77b4; stroke: #1f77b4"/>
     <use xlink:href="#mb946515552" x="273.872397" y="225.742925" style="fill: #1f77b4; stroke: #1f77b4"/>
     <use xlink:href="#mb946515552" x="277.151736" y="230.555407" style="fill: #1f77b4; stroke: #1f77b4"/>
     <use xlink:href="#mb946515552" x="280.431074" y="225.503498" style="fill: #1f77b4; stroke: #1f77b4"/>
     <use xlink:href="#mb946515552" x="283.710413" y="231.315587" style="fill: #1f77b4; stroke: #1f77b4"/>
     <use xlink:href="#mb946515552" x="286.989752" y="194.422885" style="fill: #1f77b4; stroke: #1f77b4"/>
     <use xlink:href="#mb946515552" x="290.269091" y="182.741841" style="fill: #1f77b4; stroke: #1f77b4"/>
     <use xlink:href="#mb946515552" x="293.54843" y="231.219816" style="fill: #1f77b4; stroke: #1f77b4"/>
     <use xlink:href="#mb946515552" x="296.827769" y="196.251508" style="fill: #1f77b4; stroke: #1f77b4"/>
     <use xlink:href="#mb946515552" x="300.107107" y="216.094018" style="fill: #1f77b4; stroke: #1f77b4"/>
     <use xlink:href="#mb946515552" x="303.386446" y="221.609817" style="fill: #1f77b4; stroke: #1f77b4"/>
     <use xlink:href="#mb946515552" x="306.665785" y="224.674482" style="fill: #1f77b4; stroke: #1f77b4"/>
     <use xlink:href="#mb946515552" x="309.945124" y="198.349487" style="fill: #1f77b4; stroke: #1f77b4"/>
     <use xlink:href="#mb946515552" x="313.224463" y="203.697687" style="fill: #1f77b4; stroke: #1f77b4"/>
     <use xlink:href="#mb946515552" x="316.503802" y="209.536712" style="fill: #1f77b4; stroke: #1f77b4"/>
     <use xlink:href="#mb946515552" x="319.78314" y="218.943199" style="fill: #1f77b4; stroke: #1f77b4"/>
     <use xlink:href="#mb946515552" x="323.062479" y="199.558593" style="fill: #1f77b4; stroke: #1f77b4"/>
     <use xlink:href="#mb946515552" x="326.341818" y="209.614526" style="fill: #1f77b4; stroke: #1f77b4"/>
     <use xlink:href="#mb946515552" x="329.621157" y="192.690032" style="fill: #1f77b4; stroke: #1f77b4"/>
     <use xlink:href="#mb946515552" x="332.900496" y="231.674728" style="fill: #1f77b4; stroke: #1f77b4"/>
     <use xlink:href="#mb946515552" x="336.179835" y="203.667758" style="fill: #1f77b4; stroke: #1f77b4"/>
     <use xlink:href="#mb946515552" x="339.459174" y="228.241944" style="fill: #1f77b4; stroke: #1f77b4"/>
     <use xlink:href="#mb946515552" x="342.738512" y="232.800034" style="fill: #1f77b4; stroke: #1f77b4"/>
     <use xlink:href="#mb946515552" x="346.017851" y="218.096226" style="fill: #1f77b4; stroke: #1f77b4"/>
     <use xlink:href="#mb946515552" x="349.29719" y="240.557468" style="fill: #1f77b4; stroke: #1f77b4"/>
     <use xlink:href="#mb946515552" x="352.576529" y="200.564186" style="fill: #1f77b4; stroke: #1f77b4"/>
     <use xlink:href="#mb946515552" x="355.855868" y="57.853743" style="fill: #1f77b4; stroke: #1f77b4"/>
     <use xlink:href="#mb946515552" x="359.135207" y="231.031268" style="fill: #1f77b4; stroke: #1f77b4"/>
     <use xlink:href="#mb946515552" x="362.414545" y="210.617126" style="fill: #1f77b4; stroke: #1f77b4"/>
     <use xlink:href="#mb946515552" x="365.693884" y="225.081508" style="fill: #1f77b4; stroke: #1f77b4"/>
     <use xlink:href="#mb946515552" x="368.973223" y="213.20593" style="fill: #1f77b4; stroke: #1f77b4"/>
     <use xlink:href="#mb946515552" x="372.252562" y="221.436232" style="fill: #1f77b4; stroke: #1f77b4"/>
     <use xlink:href="#mb946515552" x="375.531901" y="222.663295" style="fill: #1f77b4; stroke: #1f77b4"/>
     <use xlink:href="#mb946515552" x="378.81124" y="198.355472" style="fill: #1f77b4; stroke: #1f77b4"/>
     <use xlink:href="#mb946515552" x="382.090579" y="172.575174" style="fill: #1f77b4; stroke: #1f77b4"/>
     <use xlink:href="#mb946515552" x="385.369917" y="224.599661" style="fill: #1f77b4; stroke: #1f77b4"/>
     <use xlink:href="#mb946515552" x="388.649256" y="229.100888" style="fill: #1f77b4; stroke: #1f77b4"/>
     <use xlink:href="#mb946515552" x="391.928595" y="229.238558" style="fill: #1f77b4; stroke: #1f77b4"/>
     <use xlink:href="#mb946515552" x="395.207934" y="209.363127" style="fill: #1f77b4; stroke: #1f77b4"/>
     <use xlink:href="#mb946515552" x="398.487273" y="201.216625" style="fill: #1f77b4; stroke: #1f77b4"/>
    </g>
   </g>
   <g id="PathCollection_2">
    <defs>
     <path id="mb1862c3a5e" d="M 0 3 
C 0.795609 3 1.55874 2.683901 2.12132 2.12132 
C 2.683901 1.55874 3 0.795609 3 0 
C 3 -0.795609 2.683901 -1.55874 2.12132 -2.12132 
C 1.55874 -2.683901 0.795609 -3 0 -3 
C -0.795609 -3 -1.55874 -2.683901 -2.12132 -2.12132 
C -2.683901 -1.55874 -3 -0.795609 -3 0 
C -3 0.795609 -2.683901 1.55874 -2.12132 2.12132 
C -1.55874 2.683901 -0.795609 3 0 3 
z
" style="stroke: #ff7f0e"/>
    </defs>
    <g clip-path="url(#p467f7e2b68)">
     <use xlink:href="#mb1862c3a5e" x="73.832727" y="270.695338" style="fill: #ff7f0e; stroke: #ff7f0e"/>
     <use xlink:href="#mb1862c3a5e" x="77.112066" y="277.420243" style="fill: #ff7f0e; stroke: #ff7f0e"/>
     <use xlink:href="#mb1862c3a5e" x="80.391405" y="230.280066" style="fill: #ff7f0e; stroke: #ff7f0e"/>
     <use xlink:href="#mb1862c3a5e" x="83.670744" y="256.53024" style="fill: #ff7f0e; stroke: #ff7f0e"/>
     <use xlink:href="#mb1862c3a5e" x="86.950083" y="266.185132" style="fill: #ff7f0e; stroke: #ff7f0e"/>
     <use xlink:href="#mb1862c3a5e" x="90.229421" y="225.060558" style="fill: #ff7f0e; stroke: #ff7f0e"/>
     <use xlink:href="#mb1862c3a5e" x="93.50876" y="270.695338" style="fill: #ff7f0e; stroke: #ff7f0e"/>
     <use xlink:href="#mb1862c3a5e" x="96.788099" y="266.475437" style="fill: #ff7f0e; stroke: #ff7f0e"/>
     <use xlink:href="#mb1862c3a5e" x="100.067438" y="272.317455" style="fill: #ff7f0e; stroke: #ff7f0e"/>
     <use xlink:href="#mb1862c3a5e" x="103.346777" y="266.631065" style="fill: #ff7f0e; stroke: #ff7f0e"/>
     <use xlink:href="#mb1862c3a5e" x="106.626116" y="253.528424" style="fill: #ff7f0e; stroke: #ff7f0e"/>
     <use xlink:href="#mb1862c3a5e" x="109.905455" y="256.721781" style="fill: #ff7f0e; stroke: #ff7f0e"/>
     <use xlink:href="#mb1862c3a5e" x="113.184793" y="270.650445" style="fill: #ff7f0e; stroke: #ff7f0e"/>
     <use xlink:href="#mb1862c3a5e" x="116.464132" y="179.99741" style="fill: #ff7f0e; stroke: #ff7f0e"/>
     <use xlink:href="#mb1862c3a5e" x="119.743471" y="273.0926" style="fill: #ff7f0e; stroke: #ff7f0e"/>
     <use xlink:href="#mb1862c3a5e" x="123.02281" y="243.463513" style="fill: #ff7f0e; stroke: #ff7f0e"/>
     <use xlink:href="#mb1862c3a5e" x="126.302149" y="241.823438" style="fill: #ff7f0e; stroke: #ff7f0e"/>
     <use xlink:href="#mb1862c3a5e" x="129.581488" y="239.988829" style="fill: #ff7f0e; stroke: #ff7f0e"/>
     <use xlink:href="#mb1862c3a5e" x="132.860826" y="227.996531" style="fill: #ff7f0e; stroke: #ff7f0e"/>
     <use xlink:href="#mb1862c3a5e" x="136.140165" y="270.045892" style="fill: #ff7f0e; stroke: #ff7f0e"/>
     <use xlink:href="#mb1862c3a5e" x="139.419504" y="237.100741" style="fill: #ff7f0e; stroke: #ff7f0e"/>
     <use xlink:href="#mb1862c3a5e" x="142.698843" y="273.388891" style="fill: #ff7f0e; stroke: #ff7f0e"/>
     <use xlink:href="#mb1862c3a5e" x="145.978182" y="270.093777" style="fill: #ff7f0e; stroke: #ff7f0e"/>
     <use xlink:href="#mb1862c3a5e" x="149.257521" y="227.502713" style="fill: #ff7f0e; stroke: #ff7f0e"/>
     <use xlink:href="#mb1862c3a5e" x="152.53686" y="267.430152" style="fill: #ff7f0e; stroke: #ff7f0e"/>
     <use xlink:href="#mb1862c3a5e" x="155.816198" y="252.855036" style="fill: #ff7f0e; stroke: #ff7f0e"/>
     <use xlink:href="#mb1862c3a5e" x="159.095537" y="259.977988" style="fill: #ff7f0e; stroke: #ff7f0e"/>
     <use xlink:href="#mb1862c3a5e" x="162.374876" y="177.375684" style="fill: #ff7f0e; stroke: #ff7f0e"/>
     <use xlink:href="#mb1862c3a5e" x="165.654215" y="276.836639" style="fill: #ff7f0e; stroke: #ff7f0e"/>
     <use xlink:href="#mb1862c3a5e" x="168.933554" y="270.066842" style="fill: #ff7f0e; stroke: #ff7f0e"/>
     <use xlink:href="#mb1862c3a5e" x="172.212893" y="268.27114" style="fill: #ff7f0e; stroke: #ff7f0e"/>
     <use xlink:href="#mb1862c3a5e" x="175.492231" y="239.755388" style="fill: #ff7f0e; stroke: #ff7f0e"/>
     <use xlink:href="#mb1862c3a5e" x="178.77157" y="278.19838" style="fill: #ff7f0e; stroke: #ff7f0e"/>
     <use xlink:href="#mb1862c3a5e" x="182.050909" y="260.786054" style="fill: #ff7f0e; stroke: #ff7f0e"/>
     <use xlink:href="#mb1862c3a5e" x="185.330248" y="208.534111" style="fill: #ff7f0e; stroke: #ff7f0e"/>
     <use xlink:href="#mb1862c3a5e" x="188.609587" y="255.279234" style="fill: #ff7f0e; stroke: #ff7f0e"/>
     <use xlink:href="#mb1862c3a5e" x="191.888926" y="267.591766" style="fill: #ff7f0e; stroke: #ff7f0e"/>
     <use xlink:href="#mb1862c3a5e" x="195.168264" y="264.257745" style="fill: #ff7f0e; stroke: #ff7f0e"/>
     <use xlink:href="#mb1862c3a5e" x="198.447603" y="266.538287" style="fill: #ff7f0e; stroke: #ff7f0e"/>
     <use xlink:href="#mb1862c3a5e" x="201.726942" y="269.240819" style="fill: #ff7f0e; stroke: #ff7f0e"/>
     <use xlink:href="#mb1862c3a5e" x="205.006281" y="269.186948" style="fill: #ff7f0e; stroke: #ff7f0e"/>
     <use xlink:href="#mb1862c3a5e" x="208.28562" y="275.711333" style="fill: #ff7f0e; stroke: #ff7f0e"/>
     <use xlink:href="#mb1862c3a5e" x="211.564959" y="202.811807" style="fill: #ff7f0e; stroke: #ff7f0e"/>
     <use xlink:href="#mb1862c3a5e" x="214.844298" y="280.688421" style="fill: #ff7f0e; stroke: #ff7f0e"/>
     <use xlink:href="#mb1862c3a5e" x="218.123636" y="265.215453" style="fill: #ff7f0e; stroke: #ff7f0e"/>
     <use xlink:href="#mb1862c3a5e" x="221.402975" y="238.279919" style="fill: #ff7f0e; stroke: #ff7f0e"/>
     <use xlink:href="#mb1862c3a5e" x="224.682314" y="257.613647" style="fill: #ff7f0e; stroke: #ff7f0e"/>
     <use xlink:href="#mb1862c3a5e" x="227.961653" y="272.919016" style="fill: #ff7f0e; stroke: #ff7f0e"/>
     <use xlink:href="#mb1862c3a5e" x="231.240992" y="198.433286" style="fill: #ff7f0e; stroke: #ff7f0e"/>
     <use xlink:href="#mb1862c3a5e" x="234.520331" y="250.397916" style="fill: #ff7f0e; stroke: #ff7f0e"/>
     <use xlink:href="#mb1862c3a5e" x="237.799669" y="229.220601" style="fill: #ff7f0e; stroke: #ff7f0e"/>
     <use xlink:href="#mb1862c3a5e" x="241.079008" y="275.441977" style="fill: #ff7f0e; stroke: #ff7f0e"/>
     <use xlink:href="#mb1862c3a5e" x="244.358347" y="276.672033" style="fill: #ff7f0e; stroke: #ff7f0e"/>
     <use xlink:href="#mb1862c3a5e" x="247.637686" y="249.538972" style="fill: #ff7f0e; stroke: #ff7f0e"/>
     <use xlink:href="#mb1862c3a5e" x="250.917025" y="271.138277" style="fill: #ff7f0e; stroke: #ff7f0e"/>
     <use xlink:href="#mb1862c3a5e" x="254.196364" y="270.27634" style="fill: #ff7f0e; stroke: #ff7f0e"/>
     <use xlink:href="#mb1862c3a5e" x="257.475702" y="266.54128" style="fill: #ff7f0e; stroke: #ff7f0e"/>
     <use xlink:href="#mb1862c3a5e" x="260.755041" y="258.287035" style="fill: #ff7f0e; stroke: #ff7f0e"/>
     <use xlink:href="#mb1862c3a5e" x="264.03438" y="172.377647" style="fill: #ff7f0e; stroke: #ff7f0e"/>
     <use xlink:href="#mb1862c3a5e" x="267.313719" y="209.78811" style="fill: #ff7f0e; stroke: #ff7f0e"/>
     <use xlink:href="#mb1862c3a5e" x="270.593058" y="286.228162" style="fill: #ff7f0e; stroke: #ff7f0e"/>
     <use xlink:href="#mb1862c3a5e" x="273.872397" y="232.680321" style="fill: #ff7f0e; stroke: #ff7f0e"/>
     <use xlink:href="#mb1862c3a5e" x="277.151736" y="270.931772" style="fill: #ff7f0e; stroke: #ff7f0e"/>
     <use xlink:href="#mb1862c3a5e" x="280.431074" y="268.295082" style="fill: #ff7f0e; stroke: #ff7f0e"/>
     <use xlink:href="#mb1862c3a5e" x="283.710413" y="257.721389" style="fill: #ff7f0e; stroke: #ff7f0e"/>
     <use xlink:href="#mb1862c3a5e" x="286.989752" y="242.089801" style="fill: #ff7f0e; stroke: #ff7f0e"/>
     <use xlink:href="#mb1862c3a5e" x="290.269091" y="269.429368" style="fill: #ff7f0e; stroke: #ff7f0e"/>
     <use xlink:href="#mb1862c3a5e" x="293.54843" y="262.228601" style="fill: #ff7f0e; stroke: #ff7f0e"/>
     <use xlink:href="#mb1862c3a5e" x="296.827769" y="263.934519" style="fill: #ff7f0e; stroke: #ff7f0e"/>
     <use xlink:href="#mb1862c3a5e" x="300.107107" y="259.588919" style="fill: #ff7f0e; stroke: #ff7f0e"/>
     <use xlink:href="#mb1862c3a5e" x="303.386446" y="265.748178" style="fill: #ff7f0e; stroke: #ff7f0e"/>
     <use xlink:href="#mb1862c3a5e" x="306.665785" y="254.489125" style="fill: #ff7f0e; stroke: #ff7f0e"/>
     <use xlink:href="#mb1862c3a5e" x="309.945124" y="251.678851" style="fill: #ff7f0e; stroke: #ff7f0e"/>
     <use xlink:href="#mb1862c3a5e" x="313.224463" y="260.711233" style="fill: #ff7f0e; stroke: #ff7f0e"/>
     <use xlink:href="#mb1862c3a5e" x="316.503802" y="247.001046" style="fill: #ff7f0e; stroke: #ff7f0e"/>
     <use xlink:href="#mb1862c3a5e" x="319.78314" y="217.790956" style="fill: #ff7f0e; stroke: #ff7f0e"/>
     <use xlink:href="#mb1862c3a5e" x="323.062479" y="268.495602" style="fill: #ff7f0e; stroke: #ff7f0e"/>
     <use xlink:href="#mb1862c3a5e" x="326.341818" y="243.373728" style="fill: #ff7f0e; stroke: #ff7f0e"/>
     <use xlink:href="#mb1862c3a5e" x="329.621157" y="264.057225" style="fill: #ff7f0e; stroke: #ff7f0e"/>
     <use xlink:href="#mb1862c3a5e" x="332.900496" y="272.862152" style="fill: #ff7f0e; stroke: #ff7f0e"/>
     <use xlink:href="#mb1862c3a5e" x="336.179835" y="285.770258" style="fill: #ff7f0e; stroke: #ff7f0e"/>
     <use xlink:href="#mb1862c3a5e" x="339.459174" y="280.97274" style="fill: #ff7f0e; stroke: #ff7f0e"/>
     <use xlink:href="#mb1862c3a5e" x="342.738512" y="276.235079" style="fill: #ff7f0e; stroke: #ff7f0e"/>
     <use xlink:href="#mb1862c3a5e" x="346.017851" y="287.506103" style="fill: #ff7f0e; stroke: #ff7f0e"/>
     <use xlink:href="#mb1862c3a5e" x="349.29719" y="262.713441" style="fill: #ff7f0e; stroke: #ff7f0e"/>
     <use xlink:href="#mb1862c3a5e" x="352.576529" y="277.833254" style="fill: #ff7f0e; stroke: #ff7f0e"/>
     <use xlink:href="#mb1862c3a5e" x="355.855868" y="281.439623" style="fill: #ff7f0e; stroke: #ff7f0e"/>
     <use xlink:href="#mb1862c3a5e" x="359.135207" y="280.446001" style="fill: #ff7f0e; stroke: #ff7f0e"/>
     <use xlink:href="#mb1862c3a5e" x="362.414545" y="278.434814" style="fill: #ff7f0e; stroke: #ff7f0e"/>
     <use xlink:href="#mb1862c3a5e" x="365.693884" y="290.220607" style="fill: #ff7f0e; stroke: #ff7f0e"/>
     <use xlink:href="#mb1862c3a5e" x="368.973223" y="286.371818" style="fill: #ff7f0e; stroke: #ff7f0e"/>
     <use xlink:href="#mb1862c3a5e" x="372.252562" y="262.494964" style="fill: #ff7f0e; stroke: #ff7f0e"/>
     <use xlink:href="#mb1862c3a5e" x="375.531901" y="245.14848" style="fill: #ff7f0e; stroke: #ff7f0e"/>
     <use xlink:href="#mb1862c3a5e" x="378.81124" y="292.794447" style="fill: #ff7f0e; stroke: #ff7f0e"/>
     <use xlink:href="#mb1862c3a5e" x="382.090579" y="295.488" style="fill: #ff7f0e; stroke: #ff7f0e"/>
     <use xlink:href="#mb1862c3a5e" x="385.369917" y="250.460766" style="fill: #ff7f0e; stroke: #ff7f0e"/>
     <use xlink:href="#mb1862c3a5e" x="388.649256" y="250.305139" style="fill: #ff7f0e; stroke: #ff7f0e"/>
     <use xlink:href="#mb1862c3a5e" x="391.928595" y="259.42132" style="fill: #ff7f0e; stroke: #ff7f0e"/>
     <use xlink:href="#mb1862c3a5e" x="395.207934" y="291.630233" style="fill: #ff7f0e; stroke: #ff7f0e"/>
     <use xlink:href="#mb1862c3a5e" x="398.487273" y="286.344883" style="fill: #ff7f0e; stroke: #ff7f0e"/>
    </g>
   </g>
   <g id="matplotlib.axis_1">
    <g id="xtick_1">
     <g id="line2d_1">
      <defs>
       <path id="m4bdbbb6a9b" d="M 0 0 
L 0 3.5 
" style="stroke: #000000; stroke-width: 0.8"/>
      </defs>
      <g>
       <use xlink:href="#m4bdbbb6a9b" x="73.832727" y="307.584" style="stroke: #000000; stroke-width: 0.8"/>
      </g>
     </g>
     <g id="text_1">
      <!-- 0 -->
      <g transform="translate(70.651477 322.182437)scale(0.1 -0.1)">
       <defs>
        <path id="DejaVuSans-30" d="M 2034 4250 
Q 1547 4250 1301 3770 
Q 1056 3291 1056 2328 
Q 1056 1369 1301 889 
Q 1547 409 2034 409 
Q 2525 409 2770 889 
Q 3016 1369 3016 2328 
Q 3016 3291 2770 3770 
Q 2525 4250 2034 4250 
z
M 2034 4750 
Q 2819 4750 3233 4129 
Q 3647 3509 3647 2328 
Q 3647 1150 3233 529 
Q 2819 -91 2034 -91 
Q 1250 -91 836 529 
Q 422 1150 422 2328 
Q 422 3509 836 4129 
Q 1250 4750 2034 4750 
z
" transform="scale(0.015625)"/>
       </defs>
       <use xlink:href="#DejaVuSans-30"/>
      </g>
     </g>
    </g>
    <g id="xtick_2">
     <g id="line2d_2">
      <g>
       <use xlink:href="#m4bdbbb6a9b" x="139.419504" y="307.584" style="stroke: #000000; stroke-width: 0.8"/>
      </g>
     </g>
     <g id="text_2">
      <!-- 20 -->
      <g transform="translate(133.057004 322.182437)scale(0.1 -0.1)">
       <defs>
        <path id="DejaVuSans-32" d="M 1228 531 
L 3431 531 
L 3431 0 
L 469 0 
L 469 531 
Q 828 903 1448 1529 
Q 2069 2156 2228 2338 
Q 2531 2678 2651 2914 
Q 2772 3150 2772 3378 
Q 2772 3750 2511 3984 
Q 2250 4219 1831 4219 
Q 1534 4219 1204 4116 
Q 875 4013 500 3803 
L 500 4441 
Q 881 4594 1212 4672 
Q 1544 4750 1819 4750 
Q 2544 4750 2975 4387 
Q 3406 4025 3406 3419 
Q 3406 3131 3298 2873 
Q 3191 2616 2906 2266 
Q 2828 2175 2409 1742 
Q 1991 1309 1228 531 
z
" transform="scale(0.015625)"/>
       </defs>
       <use xlink:href="#DejaVuSans-32"/>
       <use xlink:href="#DejaVuSans-30" x="63.623047"/>
      </g>
     </g>
    </g>
    <g id="xtick_3">
     <g id="line2d_3">
      <g>
       <use xlink:href="#m4bdbbb6a9b" x="205.006281" y="307.584" style="stroke: #000000; stroke-width: 0.8"/>
      </g>
     </g>
     <g id="text_3">
      <!-- 40 -->
      <g transform="translate(198.643781 322.182437)scale(0.1 -0.1)">
       <defs>
        <path id="DejaVuSans-34" d="M 2419 4116 
L 825 1625 
L 2419 1625 
L 2419 4116 
z
M 2253 4666 
L 3047 4666 
L 3047 1625 
L 3713 1625 
L 3713 1100 
L 3047 1100 
L 3047 0 
L 2419 0 
L 2419 1100 
L 313 1100 
L 313 1709 
L 2253 4666 
z
" transform="scale(0.015625)"/>
       </defs>
       <use xlink:href="#DejaVuSans-34"/>
       <use xlink:href="#DejaVuSans-30" x="63.623047"/>
      </g>
     </g>
    </g>
    <g id="xtick_4">
     <g id="line2d_4">
      <g>
       <use xlink:href="#m4bdbbb6a9b" x="270.593058" y="307.584" style="stroke: #000000; stroke-width: 0.8"/>
      </g>
     </g>
     <g id="text_4">
      <!-- 60 -->
      <g transform="translate(264.230558 322.182437)scale(0.1 -0.1)">
       <defs>
        <path id="DejaVuSans-36" d="M 2113 2584 
Q 1688 2584 1439 2293 
Q 1191 2003 1191 1497 
Q 1191 994 1439 701 
Q 1688 409 2113 409 
Q 2538 409 2786 701 
Q 3034 994 3034 1497 
Q 3034 2003 2786 2293 
Q 2538 2584 2113 2584 
z
M 3366 4563 
L 3366 3988 
Q 3128 4100 2886 4159 
Q 2644 4219 2406 4219 
Q 1781 4219 1451 3797 
Q 1122 3375 1075 2522 
Q 1259 2794 1537 2939 
Q 1816 3084 2150 3084 
Q 2853 3084 3261 2657 
Q 3669 2231 3669 1497 
Q 3669 778 3244 343 
Q 2819 -91 2113 -91 
Q 1303 -91 875 529 
Q 447 1150 447 2328 
Q 447 3434 972 4092 
Q 1497 4750 2381 4750 
Q 2619 4750 2861 4703 
Q 3103 4656 3366 4563 
z
" transform="scale(0.015625)"/>
       </defs>
       <use xlink:href="#DejaVuSans-36"/>
       <use xlink:href="#DejaVuSans-30" x="63.623047"/>
      </g>
     </g>
    </g>
    <g id="xtick_5">
     <g id="line2d_5">
      <g>
       <use xlink:href="#m4bdbbb6a9b" x="336.179835" y="307.584" style="stroke: #000000; stroke-width: 0.8"/>
      </g>
     </g>
     <g id="text_5">
      <!-- 80 -->
      <g transform="translate(329.817335 322.182437)scale(0.1 -0.1)">
       <defs>
        <path id="DejaVuSans-38" d="M 2034 2216 
Q 1584 2216 1326 1975 
Q 1069 1734 1069 1313 
Q 1069 891 1326 650 
Q 1584 409 2034 409 
Q 2484 409 2743 651 
Q 3003 894 3003 1313 
Q 3003 1734 2745 1975 
Q 2488 2216 2034 2216 
z
M 1403 2484 
Q 997 2584 770 2862 
Q 544 3141 544 3541 
Q 544 4100 942 4425 
Q 1341 4750 2034 4750 
Q 2731 4750 3128 4425 
Q 3525 4100 3525 3541 
Q 3525 3141 3298 2862 
Q 3072 2584 2669 2484 
Q 3125 2378 3379 2068 
Q 3634 1759 3634 1313 
Q 3634 634 3220 271 
Q 2806 -91 2034 -91 
Q 1263 -91 848 271 
Q 434 634 434 1313 
Q 434 1759 690 2068 
Q 947 2378 1403 2484 
z
M 1172 3481 
Q 1172 3119 1398 2916 
Q 1625 2713 2034 2713 
Q 2441 2713 2670 2916 
Q 2900 3119 2900 3481 
Q 2900 3844 2670 4047 
Q 2441 4250 2034 4250 
Q 1625 4250 1398 4047 
Q 1172 3844 1172 3481 
z
" transform="scale(0.015625)"/>
       </defs>
       <use xlink:href="#DejaVuSans-38"/>
       <use xlink:href="#DejaVuSans-30" x="63.623047"/>
      </g>
     </g>
    </g>
    <g id="xtick_6">
     <g id="line2d_6">
      <g>
       <use xlink:href="#m4bdbbb6a9b" x="401.766612" y="307.584" style="stroke: #000000; stroke-width: 0.8"/>
      </g>
     </g>
     <g id="text_6">
      <!-- 100 -->
      <g transform="translate(392.222862 322.182437)scale(0.1 -0.1)">
       <defs>
        <path id="DejaVuSans-31" d="M 794 531 
L 1825 531 
L 1825 4091 
L 703 3866 
L 703 4441 
L 1819 4666 
L 2450 4666 
L 2450 531 
L 3481 531 
L 3481 0 
L 794 0 
L 794 531 
z
" transform="scale(0.015625)"/>
       </defs>
       <use xlink:href="#DejaVuSans-31"/>
       <use xlink:href="#DejaVuSans-30" x="63.623047"/>
       <use xlink:href="#DejaVuSans-30" x="127.246094"/>
      </g>
     </g>
    </g>
   </g>
   <g id="matplotlib.axis_2">
    <g id="ytick_1">
     <g id="line2d_7">
      <defs>
       <path id="m162e6ae807" d="M 0 0 
L -3.5 0 
" style="stroke: #000000; stroke-width: 0.8"/>
      </defs>
      <g>
       <use xlink:href="#m162e6ae807" x="57.6" y="280.006772" style="stroke: #000000; stroke-width: 0.8"/>
      </g>
     </g>
     <g id="text_7">
      <!-- 252.5 -->
      <g transform="translate(21.971875 283.805991)scale(0.1 -0.1)">
       <defs>
        <path id="DejaVuSans-35" d="M 691 4666 
L 3169 4666 
L 3169 4134 
L 1269 4134 
L 1269 2991 
Q 1406 3038 1543 3061 
Q 1681 3084 1819 3084 
Q 2600 3084 3056 2656 
Q 3513 2228 3513 1497 
Q 3513 744 3044 326 
Q 2575 -91 1722 -91 
Q 1428 -91 1123 -41 
Q 819 9 494 109 
L 494 744 
Q 775 591 1075 516 
Q 1375 441 1709 441 
Q 2250 441 2565 725 
Q 2881 1009 2881 1497 
Q 2881 1984 2565 2268 
Q 2250 2553 1709 2553 
Q 1456 2553 1204 2497 
Q 953 2441 691 2322 
L 691 4666 
z
" transform="scale(0.015625)"/>
        <path id="DejaVuSans-2e" d="M 684 794 
L 1344 794 
L 1344 0 
L 684 0 
L 684 794 
z
" transform="scale(0.015625)"/>
       </defs>
       <use xlink:href="#DejaVuSans-32"/>
       <use xlink:href="#DejaVuSans-35" x="63.623047"/>
       <use xlink:href="#DejaVuSans-32" x="127.246094"/>
       <use xlink:href="#DejaVuSans-2e" x="190.869141"/>
       <use xlink:href="#DejaVuSans-35" x="222.65625"/>
      </g>
     </g>
    </g>
    <g id="ytick_2">
     <g id="line2d_8">
      <g>
       <use xlink:href="#m162e6ae807" x="57.6" y="248.624601" style="stroke: #000000; stroke-width: 0.8"/>
      </g>
     </g>
     <g id="text_8">
      <!-- 255.0 -->
      <g transform="translate(21.971875 252.423819)scale(0.1 -0.1)">
       <use xlink:href="#DejaVuSans-32"/>
       <use xlink:href="#DejaVuSans-35" x="63.623047"/>
       <use xlink:href="#DejaVuSans-35" x="127.246094"/>
       <use xlink:href="#DejaVuSans-2e" x="190.869141"/>
       <use xlink:href="#DejaVuSans-30" x="222.65625"/>
      </g>
     </g>
    </g>
    <g id="ytick_3">
     <g id="line2d_9">
      <g>
       <use xlink:href="#m162e6ae807" x="57.6" y="217.242429" style="stroke: #000000; stroke-width: 0.8"/>
      </g>
     </g>
     <g id="text_9">
      <!-- 257.5 -->
      <g transform="translate(21.971875 221.041648)scale(0.1 -0.1)">
       <defs>
        <path id="DejaVuSans-37" d="M 525 4666 
L 3525 4666 
L 3525 4397 
L 1831 0 
L 1172 0 
L 2766 4134 
L 525 4134 
L 525 4666 
z
" transform="scale(0.015625)"/>
       </defs>
       <use xlink:href="#DejaVuSans-32"/>
       <use xlink:href="#DejaVuSans-35" x="63.623047"/>
       <use xlink:href="#DejaVuSans-37" x="127.246094"/>
       <use xlink:href="#DejaVuSans-2e" x="190.869141"/>
       <use xlink:href="#DejaVuSans-35" x="222.65625"/>
      </g>
     </g>
    </g>
    <g id="ytick_4">
     <g id="line2d_10">
      <g>
       <use xlink:href="#m162e6ae807" x="57.6" y="185.860258" style="stroke: #000000; stroke-width: 0.8"/>
      </g>
     </g>
     <g id="text_10">
      <!-- 260.0 -->
      <g transform="translate(21.971875 189.659477)scale(0.1 -0.1)">
       <use xlink:href="#DejaVuSans-32"/>
       <use xlink:href="#DejaVuSans-36" x="63.623047"/>
       <use xlink:href="#DejaVuSans-30" x="127.246094"/>
       <use xlink:href="#DejaVuSans-2e" x="190.869141"/>
       <use xlink:href="#DejaVuSans-30" x="222.65625"/>
      </g>
     </g>
    </g>
    <g id="ytick_5">
     <g id="line2d_11">
      <g>
       <use xlink:href="#m162e6ae807" x="57.6" y="154.478087" style="stroke: #000000; stroke-width: 0.8"/>
      </g>
     </g>
     <g id="text_11">
      <!-- 262.5 -->
      <g transform="translate(21.971875 158.277305)scale(0.1 -0.1)">
       <use xlink:href="#DejaVuSans-32"/>
       <use xlink:href="#DejaVuSans-36" x="63.623047"/>
       <use xlink:href="#DejaVuSans-32" x="127.246094"/>
       <use xlink:href="#DejaVuSans-2e" x="190.869141"/>
       <use xlink:href="#DejaVuSans-35" x="222.65625"/>
      </g>
     </g>
    </g>
    <g id="ytick_6">
     <g id="line2d_12">
      <g>
       <use xlink:href="#m162e6ae807" x="57.6" y="123.095915" style="stroke: #000000; stroke-width: 0.8"/>
      </g>
     </g>
     <g id="text_12">
      <!-- 265.0 -->
      <g transform="translate(21.971875 126.895134)scale(0.1 -0.1)">
       <use xlink:href="#DejaVuSans-32"/>
       <use xlink:href="#DejaVuSans-36" x="63.623047"/>
       <use xlink:href="#DejaVuSans-35" x="127.246094"/>
       <use xlink:href="#DejaVuSans-2e" x="190.869141"/>
       <use xlink:href="#DejaVuSans-30" x="222.65625"/>
      </g>
     </g>
    </g>
    <g id="ytick_7">
     <g id="line2d_13">
      <g>
       <use xlink:href="#m162e6ae807" x="57.6" y="91.713744" style="stroke: #000000; stroke-width: 0.8"/>
      </g>
     </g>
     <g id="text_13">
      <!-- 267.5 -->
      <g transform="translate(21.971875 95.512963)scale(0.1 -0.1)">
       <use xlink:href="#DejaVuSans-32"/>
       <use xlink:href="#DejaVuSans-36" x="63.623047"/>
       <use xlink:href="#DejaVuSans-37" x="127.246094"/>
       <use xlink:href="#DejaVuSans-2e" x="190.869141"/>
       <use xlink:href="#DejaVuSans-35" x="222.65625"/>
      </g>
     </g>
    </g>
    <g id="ytick_8">
     <g id="line2d_14">
      <g>
       <use xlink:href="#m162e6ae807" x="57.6" y="60.331572" style="stroke: #000000; stroke-width: 0.8"/>
      </g>
     </g>
     <g id="text_14">
      <!-- 270.0 -->
      <g transform="translate(21.971875 64.130791)scale(0.1 -0.1)">
       <use xlink:href="#DejaVuSans-32"/>
       <use xlink:href="#DejaVuSans-37" x="63.623047"/>
       <use xlink:href="#DejaVuSans-30" x="127.246094"/>
       <use xlink:href="#DejaVuSans-2e" x="190.869141"/>
       <use xlink:href="#DejaVuSans-30" x="222.65625"/>
      </g>
     </g>
    </g>
   </g>
   <g id="line2d_15">
    <path d="M 73.832727 242.079326 
L 398.487273 242.079326 
" clip-path="url(#p467f7e2b68)" style="fill: none; stroke: #1f77b4; stroke-width: 1.5; stroke-linecap: square"/>
   </g>
   <g id="patch_3">
    <path d="M 57.6 307.584 
L 57.6 41.472 
" style="fill: none; stroke: #000000; stroke-width: 0.8; stroke-linejoin: miter; stroke-linecap: square"/>
   </g>
   <g id="patch_4">
    <path d="M 414.72 307.584 
L 414.72 41.472 
" style="fill: none; stroke: #000000; stroke-width: 0.8; stroke-linejoin: miter; stroke-linecap: square"/>
   </g>
   <g id="patch_5">
    <path d="M 57.6 307.584 
L 414.72 307.584 
" style="fill: none; stroke: #000000; stroke-width: 0.8; stroke-linejoin: miter; stroke-linecap: square"/>
   </g>
   <g id="patch_6">
    <path d="M 57.6 41.472 
L 414.72 41.472 
" style="fill: none; stroke: #000000; stroke-width: 0.8; stroke-linejoin: miter; stroke-linecap: square"/>
   </g>
   <g id="legend_1">
    <g id="patch_7">
     <path d="M 196.615469 93.506375 
L 275.704531 93.506375 
Q 277.704531 93.506375 277.704531 91.506375 
L 277.704531 48.472 
Q 277.704531 46.472 275.704531 46.472 
L 196.615469 46.472 
Q 194.615469 46.472 194.615469 48.472 
L 194.615469 91.506375 
Q 194.615469 93.506375 196.615469 93.506375 
z
" style="fill: #ffffff; opacity: 0.8; stroke: #cccccc; stroke-linejoin: miter"/>
    </g>
    <g id="PathCollection_3">
     <g>
      <use xlink:href="#mb946515552" x="208.615469" y="55.445438" style="fill: #1f77b4; stroke: #1f77b4"/>
     </g>
    </g>
    <g id="text_15">
     <!-- hits -->
     <g transform="translate(226.615469 58.070438)scale(0.1 -0.1)">
      <defs>
       <path id="DejaVuSans-68" d="M 3513 2113 
L 3513 0 
L 2938 0 
L 2938 2094 
Q 2938 2591 2744 2837 
Q 2550 3084 2163 3084 
Q 1697 3084 1428 2787 
Q 1159 2491 1159 1978 
L 1159 0 
L 581 0 
L 581 4863 
L 1159 4863 
L 1159 2956 
Q 1366 3272 1645 3428 
Q 1925 3584 2291 3584 
Q 2894 3584 3203 3211 
Q 3513 2838 3513 2113 
z
" transform="scale(0.015625)"/>
       <path id="DejaVuSans-69" d="M 603 3500 
L 1178 3500 
L 1178 0 
L 603 0 
L 603 3500 
z
M 603 4863 
L 1178 4863 
L 1178 4134 
L 603 4134 
L 603 4863 
z
" transform="scale(0.015625)"/>
       <path id="DejaVuSans-74" d="M 1172 4494 
L 1172 3500 
L 2356 3500 
L 2356 3053 
L 1172 3053 
L 1172 1153 
Q 1172 725 1289 603 
Q 1406 481 1766 481 
L 2356 481 
L 2356 0 
L 1766 0 
Q 1100 0 847 248 
Q 594 497 594 1153 
L 594 3053 
L 172 3053 
L 172 3500 
L 594 3500 
L 594 4494 
L 1172 4494 
z
" transform="scale(0.015625)"/>
       <path id="DejaVuSans-73" d="M 2834 3397 
L 2834 2853 
Q 2591 2978 2328 3040 
Q 2066 3103 1784 3103 
Q 1356 3103 1142 2972 
Q 928 2841 928 2578 
Q 928 2378 1081 2264 
Q 1234 2150 1697 2047 
L 1894 2003 
Q 2506 1872 2764 1633 
Q 3022 1394 3022 966 
Q 3022 478 2636 193 
Q 2250 -91 1575 -91 
Q 1294 -91 989 -36 
Q 684 19 347 128 
L 347 722 
Q 666 556 975 473 
Q 1284 391 1588 391 
Q 1994 391 2212 530 
Q 2431 669 2431 922 
Q 2431 1156 2273 1281 
Q 2116 1406 1581 1522 
L 1381 1569 
Q 847 1681 609 1914 
Q 372 2147 372 2553 
Q 372 3047 722 3315 
Q 1072 3584 1716 3584 
Q 2034 3584 2315 3537 
Q 2597 3491 2834 3397 
z
" transform="scale(0.015625)"/>
      </defs>
      <use xlink:href="#DejaVuSans-68"/>
      <use xlink:href="#DejaVuSans-69" x="63.378906"/>
      <use xlink:href="#DejaVuSans-74" x="91.162109"/>
      <use xlink:href="#DejaVuSans-73" x="130.371094"/>
     </g>
    </g>
    <g id="PathCollection_4">
     <g>
      <use xlink:href="#mb1862c3a5e" x="208.615469" y="70.123563" style="fill: #ff7f0e; stroke: #ff7f0e"/>
     </g>
    </g>
    <g id="text_16">
     <!-- misses -->
     <g transform="translate(226.615469 72.748563)scale(0.1 -0.1)">
      <defs>
       <path id="DejaVuSans-6d" d="M 3328 2828 
Q 3544 3216 3844 3400 
Q 4144 3584 4550 3584 
Q 5097 3584 5394 3201 
Q 5691 2819 5691 2113 
L 5691 0 
L 5113 0 
L 5113 2094 
Q 5113 2597 4934 2840 
Q 4756 3084 4391 3084 
Q 3944 3084 3684 2787 
Q 3425 2491 3425 1978 
L 3425 0 
L 2847 0 
L 2847 2094 
Q 2847 2600 2669 2842 
Q 2491 3084 2119 3084 
Q 1678 3084 1418 2786 
Q 1159 2488 1159 1978 
L 1159 0 
L 581 0 
L 581 3500 
L 1159 3500 
L 1159 2956 
Q 1356 3278 1631 3431 
Q 1906 3584 2284 3584 
Q 2666 3584 2933 3390 
Q 3200 3197 3328 2828 
z
" transform="scale(0.015625)"/>
       <path id="DejaVuSans-65" d="M 3597 1894 
L 3597 1613 
L 953 1613 
Q 991 1019 1311 708 
Q 1631 397 2203 397 
Q 2534 397 2845 478 
Q 3156 559 3463 722 
L 3463 178 
Q 3153 47 2828 -22 
Q 2503 -91 2169 -91 
Q 1331 -91 842 396 
Q 353 884 353 1716 
Q 353 2575 817 3079 
Q 1281 3584 2069 3584 
Q 2775 3584 3186 3129 
Q 3597 2675 3597 1894 
z
M 3022 2063 
Q 3016 2534 2758 2815 
Q 2500 3097 2075 3097 
Q 1594 3097 1305 2825 
Q 1016 2553 972 2059 
L 3022 2063 
z
" transform="scale(0.015625)"/>
      </defs>
      <use xlink:href="#DejaVuSans-6d"/>
      <use xlink:href="#DejaVuSans-69" x="97.412109"/>
      <use xlink:href="#DejaVuSans-73" x="125.195312"/>
      <use xlink:href="#DejaVuSans-73" x="177.294922"/>
      <use xlink:href="#DejaVuSans-65" x="229.394531"/>
      <use xlink:href="#DejaVuSans-73" x="290.917969"/>
     </g>
    </g>
    <g id="line2d_16">
     <path d="M 198.615469 83.926688 
L 208.615469 83.926688 
L 218.615469 83.926688 
" style="fill: none; stroke: #1f77b4; stroke-width: 1.5; stroke-linecap: square"/>
    </g>
    <g id="text_17">
     <!-- threshold -->
     <g transform="translate(226.615469 87.426688)scale(0.1 -0.1)">
      <defs>
       <path id="DejaVuSans-72" d="M 2631 2963 
Q 2534 3019 2420 3045 
Q 2306 3072 2169 3072 
Q 1681 3072 1420 2755 
Q 1159 2438 1159 1844 
L 1159 0 
L 581 0 
L 581 3500 
L 1159 3500 
L 1159 2956 
Q 1341 3275 1631 3429 
Q 1922 3584 2338 3584 
Q 2397 3584 2469 3576 
Q 2541 3569 2628 3553 
L 2631 2963 
z
" transform="scale(0.015625)"/>
       <path id="DejaVuSans-6f" d="M 1959 3097 
Q 1497 3097 1228 2736 
Q 959 2375 959 1747 
Q 959 1119 1226 758 
Q 1494 397 1959 397 
Q 2419 397 2687 759 
Q 2956 1122 2956 1747 
Q 2956 2369 2687 2733 
Q 2419 3097 1959 3097 
z
M 1959 3584 
Q 2709 3584 3137 3096 
Q 3566 2609 3566 1747 
Q 3566 888 3137 398 
Q 2709 -91 1959 -91 
Q 1206 -91 779 398 
Q 353 888 353 1747 
Q 353 2609 779 3096 
Q 1206 3584 1959 3584 
z
" transform="scale(0.015625)"/>
       <path id="DejaVuSans-6c" d="M 603 4863 
L 1178 4863 
L 1178 0 
L 603 0 
L 603 4863 
z
" transform="scale(0.015625)"/>
       <path id="DejaVuSans-64" d="M 2906 2969 
L 2906 4863 
L 3481 4863 
L 3481 0 
L 2906 0 
L 2906 525 
Q 2725 213 2448 61 
Q 2172 -91 1784 -91 
Q 1150 -91 751 415 
Q 353 922 353 1747 
Q 353 2572 751 3078 
Q 1150 3584 1784 3584 
Q 2172 3584 2448 3432 
Q 2725 3281 2906 2969 
z
M 947 1747 
Q 947 1113 1208 752 
Q 1469 391 1925 391 
Q 2381 391 2643 752 
Q 2906 1113 2906 1747 
Q 2906 2381 2643 2742 
Q 2381 3103 1925 3103 
Q 1469 3103 1208 2742 
Q 947 2381 947 1747 
z
" transform="scale(0.015625)"/>
      </defs>
      <use xlink:href="#DejaVuSans-74"/>
      <use xlink:href="#DejaVuSans-68" x="39.208984"/>
      <use xlink:href="#DejaVuSans-72" x="102.587891"/>
      <use xlink:href="#DejaVuSans-65" x="141.451172"/>
      <use xlink:href="#DejaVuSans-73" x="202.974609"/>
      <use xlink:href="#DejaVuSans-68" x="255.074219"/>
      <use xlink:href="#DejaVuSans-6f" x="318.453125"/>
      <use xlink:href="#DejaVuSans-6c" x="379.634766"/>
      <use xlink:href="#DejaVuSans-64" x="407.417969"/>
     </g>
    </g>
   </g>
  </g>
 </g>
 <defs>
  <clipPath id="p467f7e2b68">
   <rect x="57.6" y="41.472" width="357.12" height="266.112"/>
  </clipPath>
 </defs>
</svg>
