<?xml version="1.0" encoding="utf-8" standalone="no"?>
<!DOCTYPE svg PUBLIC "-//W3C//DTD SVG 1.1//EN"
  "http://www.w3.org/Graphics/SVG/1.1/DTD/svg11.dtd">
<svg xmlns:xlink="http://www.w3.org/1999/xlink" width="460.8pt" height="345.6pt" viewBox="0 0 460.8 345.6" xmlns="http://www.w3.org/2000/svg" version="1.1">
 <metadata>
  <rdf:RDF xmlns:dc="http://purl.org/dc/elements/1.1/" xmlns:cc="http://creativecommons.org/ns#" xmlns:rdf="http://www.w3.org/1999/02/22-rdf-syntax-ns#">
   <cc:Work>
    <dc:type rdf:resource="http://purl.org/dc/dcmitype/StillImage"/>
    <dc:date>2024-05-10T01:39:49.820041</dc:date>
    <dc:format>image/svg+xml</dc:format>
    <dc:creator>
     <cc:Agent>
      <dc:title>Matplotlib v3.6.3, https://matplotlib.org/</dc:title>
     </cc:Agent>
    </dc:creator>
   </cc:Work>
  </rdf:RDF>
 </metadata>
 <defs>
  <style type="text/css">*{stroke-linejoin: round; stroke-linecap: butt}</style>
 </defs>
 <g id="figure_1">
  <g id="patch_1">
   <path d="M 0 345.6 
L 460.8 345.6 
L 460.8 0 
L 0 0 
z
" style="fill: #ffffff"/>
  </g>
  <g id="axes_1">
   <g id="patch_2">
    <path d="M 51.260937 289.365625 
L 443.237763 289.365625 
L 443.237763 16.2 
L 51.260937 16.2 
z
" style="fill: #ffffff"/>
   </g>
   <g id="PathCollection_1">
    <defs>
     <path id="mc3cb1e204a" d="M 0 3 
C 0.795609 3 1.55874 2.683901 2.12132 2.12132 
C 2.683901 1.55874 3 0.795609 3 0 
C 3 -0.795609 2.683901 -1.55874 2.12132 -2.12132 
C 1.55874 -2.683901 0.795609 -3 0 -3 
C -0.795609 -3 -1.55874 -2.683901 -2.12132 -2.12132 
C -2.683901 -1.55874 -3 -0.795609 -3 0 
C -3 0.795609 -2.683901 1.55874 -2.12132 2.12132 
C -1.55874 2.683901 -0.795609 3 0 3 
z
" style="stroke: #1f77b4"/>
    </defs>
    <g clip-path="url(#p89304b9d41)">
     <use xlink:href="#mc3cb1e204a" x="69.078066" y="179.636045" style="fill: #1f77b4; stroke: #1f77b4"/>
     <use xlink:href="#mc3cb1e204a" x="72.677486" y="174.581532" style="fill: #1f77b4; stroke: #1f77b4"/>
     <use xlink:href="#mc3cb1e204a" x="76.276906" y="180.197657" style="fill: #1f77b4; stroke: #1f77b4"/>
     <use xlink:href="#mc3cb1e204a" x="79.876326" y="171.130332" style="fill: #1f77b4; stroke: #1f77b4"/>
     <use xlink:href="#mc3cb1e204a" x="83.475746" y="182.942312" style="fill: #1f77b4; stroke: #1f77b4"/>
     <use xlink:href="#mc3cb1e204a" x="87.075165" y="177.543585" style="fill: #1f77b4; stroke: #1f77b4"/>
     <use xlink:href="#mc3cb1e204a" x="90.674585" y="181.266533" style="fill: #1f77b4; stroke: #1f77b4"/>
     <use xlink:href="#mc3cb1e204a" x="94.274005" y="173.394899" style="fill: #1f77b4; stroke: #1f77b4"/>
     <use xlink:href="#mc3cb1e204a" x="97.873425" y="183.540158" style="fill: #1f77b4; stroke: #1f77b4"/>
     <use xlink:href="#mc3cb1e204a" x="101.472845" y="183.087244" style="fill: #1f77b4; stroke: #1f77b4"/>
     <use xlink:href="#mc3cb1e204a" x="105.072265" y="113.954552" style="fill: #1f77b4; stroke: #1f77b4"/>
     <use xlink:href="#mc3cb1e204a" x="108.671685" y="200.143961" style="fill: #1f77b4; stroke: #1f77b4"/>
     <use xlink:href="#mc3cb1e204a" x="112.271105" y="203.622335" style="fill: #1f77b4; stroke: #1f77b4"/>
     <use xlink:href="#mc3cb1e204a" x="115.870525" y="204.093365" style="fill: #1f77b4; stroke: #1f77b4"/>
     <use xlink:href="#mc3cb1e204a" x="119.469944" y="201.158487" style="fill: #1f77b4; stroke: #1f77b4"/>
     <use xlink:href="#mc3cb1e204a" x="123.069364" y="202.671217" style="fill: #1f77b4; stroke: #1f77b4"/>
     <use xlink:href="#mc3cb1e204a" x="126.668784" y="200.406651" style="fill: #1f77b4; stroke: #1f77b4"/>
     <use xlink:href="#mc3cb1e204a" x="130.268204" y="203.051665" style="fill: #1f77b4; stroke: #1f77b4"/>
     <use xlink:href="#mc3cb1e204a" x="133.867624" y="202.698392" style="fill: #1f77b4; stroke: #1f77b4"/>
     <use xlink:href="#mc3cb1e204a" x="137.467044" y="202.879557" style="fill: #1f77b4; stroke: #1f77b4"/>
     <use xlink:href="#mc3cb1e204a" x="141.066464" y="201.330594" style="fill: #1f77b4; stroke: #1f77b4"/>
     <use xlink:href="#mc3cb1e204a" x="144.665884" y="203.522694" style="fill: #1f77b4; stroke: #1f77b4"/>
     <use xlink:href="#mc3cb1e204a" x="148.265304" y="198.495356" style="fill: #1f77b4; stroke: #1f77b4"/>
     <use xlink:href="#mc3cb1e204a" x="151.864723" y="204.283589" style="fill: #1f77b4; stroke: #1f77b4"/>
     <use xlink:href="#mc3cb1e204a" x="155.464143" y="198.051501" style="fill: #1f77b4; stroke: #1f77b4"/>
     <use xlink:href="#mc3cb1e204a" x="159.063563" y="182.697739" style="fill: #1f77b4; stroke: #1f77b4"/>
     <use xlink:href="#mc3cb1e204a" x="162.662983" y="191.801297" style="fill: #1f77b4; stroke: #1f77b4"/>
     <use xlink:href="#mc3cb1e204a" x="166.262403" y="174.409425" style="fill: #1f77b4; stroke: #1f77b4"/>
     <use xlink:href="#mc3cb1e204a" x="169.861823" y="193.821291" style="fill: #1f77b4; stroke: #1f77b4"/>
     <use xlink:href="#mc3cb1e204a" x="173.461243" y="189.110992" style="fill: #1f77b4; stroke: #1f77b4"/>
     <use xlink:href="#mc3cb1e204a" x="177.060663" y="175.568883" style="fill: #1f77b4; stroke: #1f77b4"/>
     <use xlink:href="#mc3cb1e204a" x="180.660083" y="200.93203" style="fill: #1f77b4; stroke: #1f77b4"/>
     <use xlink:href="#mc3cb1e204a" x="184.259502" y="184.029304" style="fill: #1f77b4; stroke: #1f77b4"/>
     <use xlink:href="#mc3cb1e204a" x="187.858922" y="191.466141" style="fill: #1f77b4; stroke: #1f77b4"/>
     <use xlink:href="#mc3cb1e204a" x="191.458342" y="211.204105" style="fill: #1f77b4; stroke: #1f77b4"/>
     <use xlink:href="#mc3cb1e204a" x="195.057762" y="188.485971" style="fill: #1f77b4; stroke: #1f77b4"/>
     <use xlink:href="#mc3cb1e204a" x="198.657182" y="196.421013" style="fill: #1f77b4; stroke: #1f77b4"/>
     <use xlink:href="#mc3cb1e204a" x="202.256602" y="189.500497" style="fill: #1f77b4; stroke: #1f77b4"/>
     <use xlink:href="#mc3cb1e204a" x="205.856022" y="198.495356" style="fill: #1f77b4; stroke: #1f77b4"/>
     <use xlink:href="#mc3cb1e204a" x="209.455442" y="153.05909" style="fill: #1f77b4; stroke: #1f77b4"/>
     <use xlink:href="#mc3cb1e204a" x="213.054862" y="179.34618" style="fill: #1f77b4; stroke: #1f77b4"/>
     <use xlink:href="#mc3cb1e204a" x="216.654281" y="195.198147" style="fill: #1f77b4; stroke: #1f77b4"/>
     <use xlink:href="#mc3cb1e204a" x="220.253701" y="197.517063" style="fill: #1f77b4; stroke: #1f77b4"/>
     <use xlink:href="#mc3cb1e204a" x="223.853121" y="28.616619" style="fill: #1f77b4; stroke: #1f77b4"/>
     <use xlink:href="#mc3cb1e204a" x="227.452541" y="190.841121" style="fill: #1f77b4; stroke: #1f77b4"/>
     <use xlink:href="#mc3cb1e204a" x="231.051961" y="198.594997" style="fill: #1f77b4; stroke: #1f77b4"/>
     <use xlink:href="#mc3cb1e204a" x="234.651381" y="175.659465" style="fill: #1f77b4; stroke: #1f77b4"/>
     <use xlink:href="#mc3cb1e204a" x="238.250801" y="195.623886" style="fill: #1f77b4; stroke: #1f77b4"/>
     <use xlink:href="#mc3cb1e204a" x="241.850221" y="189.491439" style="fill: #1f77b4; stroke: #1f77b4"/>
     <use xlink:href="#mc3cb1e204a" x="245.449641" y="189.002293" style="fill: #1f77b4; stroke: #1f77b4"/>
     <use xlink:href="#mc3cb1e204a" x="249.04906" y="176.21202" style="fill: #1f77b4; stroke: #1f77b4"/>
     <use xlink:href="#mc3cb1e204a" x="252.64848" y="195.125681" style="fill: #1f77b4; stroke: #1f77b4"/>
     <use xlink:href="#mc3cb1e204a" x="256.2479" y="125.911464" style="fill: #1f77b4; stroke: #1f77b4"/>
     <use xlink:href="#mc3cb1e204a" x="259.84732" y="183.676032" style="fill: #1f77b4; stroke: #1f77b4"/>
     <use xlink:href="#mc3cb1e204a" x="263.44674" y="184.726791" style="fill: #1f77b4; stroke: #1f77b4"/>
     <use xlink:href="#mc3cb1e204a" x="267.04616" y="195.08039" style="fill: #1f77b4; stroke: #1f77b4"/>
     <use xlink:href="#mc3cb1e204a" x="270.64558" y="192.018695" style="fill: #1f77b4; stroke: #1f77b4"/>
     <use xlink:href="#mc3cb1e204a" x="274.245" y="176.275428" style="fill: #1f77b4; stroke: #1f77b4"/>
     <use xlink:href="#mc3cb1e204a" x="277.84442" y="196.710878" style="fill: #1f77b4; stroke: #1f77b4"/>
     <use xlink:href="#mc3cb1e204a" x="281.443839" y="182.244826" style="fill: #1f77b4; stroke: #1f77b4"/>
     <use xlink:href="#mc3cb1e204a" x="285.043259" y="188.748661" style="fill: #1f77b4; stroke: #1f77b4"/>
     <use xlink:href="#mc3cb1e204a" x="288.642679" y="196.928276" style="fill: #1f77b4; stroke: #1f77b4"/>
     <use xlink:href="#mc3cb1e204a" x="292.242099" y="196.040566" style="fill: #1f77b4; stroke: #1f77b4"/>
     <use xlink:href="#mc3cb1e204a" x="295.841519" y="182.462224" style="fill: #1f77b4; stroke: #1f77b4"/>
     <use xlink:href="#mc3cb1e204a" x="299.440939" y="195.814109" style="fill: #1f77b4; stroke: #1f77b4"/>
     <use xlink:href="#mc3cb1e204a" x="303.040359" y="185.967773" style="fill: #1f77b4; stroke: #1f77b4"/>
     <use xlink:href="#mc3cb1e204a" x="306.639779" y="195.044157" style="fill: #1f77b4; stroke: #1f77b4"/>
     <use xlink:href="#mc3cb1e204a" x="310.239199" y="185.007597" style="fill: #1f77b4; stroke: #1f77b4"/>
     <use xlink:href="#mc3cb1e204a" x="313.838618" y="196.276081" style="fill: #1f77b4; stroke: #1f77b4"/>
     <use xlink:href="#mc3cb1e204a" x="317.438038" y="197.163791" style="fill: #1f77b4; stroke: #1f77b4"/>
     <use xlink:href="#mc3cb1e204a" x="321.037458" y="196.765227" style="fill: #1f77b4; stroke: #1f77b4"/>
     <use xlink:href="#mc3cb1e204a" x="324.636878" y="186.031181" style="fill: #1f77b4; stroke: #1f77b4"/>
     <use xlink:href="#mc3cb1e204a" x="328.236298" y="185.551093" style="fill: #1f77b4; stroke: #1f77b4"/>
     <use xlink:href="#mc3cb1e204a" x="331.835718" y="187.616378" style="fill: #1f77b4; stroke: #1f77b4"/>
     <use xlink:href="#mc3cb1e204a" x="335.435138" y="197.888452" style="fill: #1f77b4; stroke: #1f77b4"/>
     <use xlink:href="#mc3cb1e204a" x="339.034558" y="185.161587" style="fill: #1f77b4; stroke: #1f77b4"/>
     <use xlink:href="#mc3cb1e204a" x="342.633978" y="187.435212" style="fill: #1f77b4; stroke: #1f77b4"/>
     <use xlink:href="#mc3cb1e204a" x="346.233397" y="195.660119" style="fill: #1f77b4; stroke: #1f77b4"/>
     <use xlink:href="#mc3cb1e204a" x="349.832817" y="196.167382" style="fill: #1f77b4; stroke: #1f77b4"/>
     <use xlink:href="#mc3cb1e204a" x="353.432237" y="193.169095" style="fill: #1f77b4; stroke: #1f77b4"/>
     <use xlink:href="#mc3cb1e204a" x="357.031657" y="193.178154" style="fill: #1f77b4; stroke: #1f77b4"/>
     <use xlink:href="#mc3cb1e204a" x="360.631077" y="194.364787" style="fill: #1f77b4; stroke: #1f77b4"/>
     <use xlink:href="#mc3cb1e204a" x="364.230497" y="187.109115" style="fill: #1f77b4; stroke: #1f77b4"/>
     <use xlink:href="#mc3cb1e204a" x="367.829917" y="193.993398" style="fill: #1f77b4; stroke: #1f77b4"/>
     <use xlink:href="#mc3cb1e204a" x="371.429337" y="190.515023" style="fill: #1f77b4; stroke: #1f77b4"/>
     <use xlink:href="#mc3cb1e204a" x="375.028757" y="192.525958" style="fill: #1f77b4; stroke: #1f77b4"/>
     <use xlink:href="#mc3cb1e204a" x="378.628176" y="195.931867" style="fill: #1f77b4; stroke: #1f77b4"/>
     <use xlink:href="#mc3cb1e204a" x="382.227596" y="206.919544" style="fill: #1f77b4; stroke: #1f77b4"/>
     <use xlink:href="#mc3cb1e204a" x="385.827016" y="196.312314" style="fill: #1f77b4; stroke: #1f77b4"/>
     <use xlink:href="#mc3cb1e204a" x="389.426436" y="196.457246" style="fill: #1f77b4; stroke: #1f77b4"/>
     <use xlink:href="#mc3cb1e204a" x="393.025856" y="213.205982" style="fill: #1f77b4; stroke: #1f77b4"/>
     <use xlink:href="#mc3cb1e204a" x="396.625276" y="190.42444" style="fill: #1f77b4; stroke: #1f77b4"/>
     <use xlink:href="#mc3cb1e204a" x="400.224696" y="179.563579" style="fill: #1f77b4; stroke: #1f77b4"/>
     <use xlink:href="#mc3cb1e204a" x="403.824116" y="193.631067" style="fill: #1f77b4; stroke: #1f77b4"/>
     <use xlink:href="#mc3cb1e204a" x="407.423536" y="194.156446" style="fill: #1f77b4; stroke: #1f77b4"/>
     <use xlink:href="#mc3cb1e204a" x="411.022955" y="194.34667" style="fill: #1f77b4; stroke: #1f77b4"/>
     <use xlink:href="#mc3cb1e204a" x="414.622375" y="193.241561" style="fill: #1f77b4; stroke: #1f77b4"/>
     <use xlink:href="#mc3cb1e204a" x="418.221795" y="187.951534" style="fill: #1f77b4; stroke: #1f77b4"/>
     <use xlink:href="#mc3cb1e204a" x="421.821215" y="193.603892" style="fill: #1f77b4; stroke: #1f77b4"/>
     <use xlink:href="#mc3cb1e204a" x="425.420635" y="181.492989" style="fill: #1f77b4; stroke: #1f77b4"/>
    </g>
   </g>
   <g id="PathCollection_2">
    <defs>
     <path id="m471666fe08" d="M 0 3 
C 0.795609 3 1.55874 2.683901 2.12132 2.12132 
C 2.683901 1.55874 3 0.795609 3 0 
C 3 -0.795609 2.683901 -1.55874 2.12132 -2.12132 
C 1.55874 -2.683901 0.795609 -3 0 -3 
C -0.795609 -3 -1.55874 -2.683901 -2.12132 -2.12132 
C -2.683901 -1.55874 -3 -0.795609 -3 0 
C -3 0.795609 -2.683901 1.55874 -2.12132 2.12132 
C -1.55874 2.683901 -0.795609 3 0 3 
z
" style="stroke: #ff7f0e"/>
    </defs>
    <g clip-path="url(#p89304b9d41)">
     <use xlink:href="#m471666fe08" x="69.078066" y="276.006946" style="fill: #ff7f0e; stroke: #ff7f0e"/>
     <use xlink:href="#m471666fe08" x="72.677486" y="276.441743" style="fill: #ff7f0e; stroke: #ff7f0e"/>
     <use xlink:href="#m471666fe08" x="76.276906" y="275.970713" style="fill: #ff7f0e; stroke: #ff7f0e"/>
     <use xlink:href="#m471666fe08" x="79.876326" y="276.496092" style="fill: #ff7f0e; stroke: #ff7f0e"/>
     <use xlink:href="#m471666fe08" x="83.475746" y="276.468918" style="fill: #ff7f0e; stroke: #ff7f0e"/>
     <use xlink:href="#m471666fe08" x="87.075165" y="273.570272" style="fill: #ff7f0e; stroke: #ff7f0e"/>
     <use xlink:href="#m471666fe08" x="90.674585" y="274.983362" style="fill: #ff7f0e; stroke: #ff7f0e"/>
     <use xlink:href="#m471666fe08" x="94.274005" y="264.702229" style="fill: #ff7f0e; stroke: #ff7f0e"/>
     <use xlink:href="#m471666fe08" x="97.873425" y="272.945252" style="fill: #ff7f0e; stroke: #ff7f0e"/>
     <use xlink:href="#m471666fe08" x="101.472845" y="275.762373" style="fill: #ff7f0e; stroke: #ff7f0e"/>
     <use xlink:href="#m471666fe08" x="105.072265" y="276.179053" style="fill: #ff7f0e; stroke: #ff7f0e"/>
     <use xlink:href="#m471666fe08" x="108.671685" y="276.432684" style="fill: #ff7f0e; stroke: #ff7f0e"/>
     <use xlink:href="#m471666fe08" x="112.271105" y="275.988829" style="fill: #ff7f0e; stroke: #ff7f0e"/>
     <use xlink:href="#m471666fe08" x="115.870525" y="275.907305" style="fill: #ff7f0e; stroke: #ff7f0e"/>
     <use xlink:href="#m471666fe08" x="119.469944" y="275.898247" style="fill: #ff7f0e; stroke: #ff7f0e"/>
     <use xlink:href="#m471666fe08" x="123.069364" y="265.109851" style="fill: #ff7f0e; stroke: #ff7f0e"/>
     <use xlink:href="#m471666fe08" x="126.668784" y="276.070354" style="fill: #ff7f0e; stroke: #ff7f0e"/>
     <use xlink:href="#m471666fe08" x="130.268204" y="276.369277" style="fill: #ff7f0e; stroke: #ff7f0e"/>
     <use xlink:href="#m471666fe08" x="133.867624" y="275.943538" style="fill: #ff7f0e; stroke: #ff7f0e"/>
     <use xlink:href="#m471666fe08" x="137.467044" y="275.943538" style="fill: #ff7f0e; stroke: #ff7f0e"/>
     <use xlink:href="#m471666fe08" x="141.066464" y="276.631966" style="fill: #ff7f0e; stroke: #ff7f0e"/>
     <use xlink:href="#m471666fe08" x="144.665884" y="273.063009" style="fill: #ff7f0e; stroke: #ff7f0e"/>
     <use xlink:href="#m471666fe08" x="148.265304" y="265.562764" style="fill: #ff7f0e; stroke: #ff7f0e"/>
     <use xlink:href="#m471666fe08" x="151.864723" y="275.762373" style="fill: #ff7f0e; stroke: #ff7f0e"/>
     <use xlink:href="#m471666fe08" x="155.464143" y="276.224344" style="fill: #ff7f0e; stroke: #ff7f0e"/>
     <use xlink:href="#m471666fe08" x="159.063563" y="276.749724" style="fill: #ff7f0e; stroke: #ff7f0e"/>
     <use xlink:href="#m471666fe08" x="162.662983" y="275.925422" style="fill: #ff7f0e; stroke: #ff7f0e"/>
     <use xlink:href="#m471666fe08" x="166.262403" y="264.303665" style="fill: #ff7f0e; stroke: #ff7f0e"/>
     <use xlink:href="#m471666fe08" x="169.861823" y="276.749724" style="fill: #ff7f0e; stroke: #ff7f0e"/>
     <use xlink:href="#m471666fe08" x="173.461243" y="273.398165" style="fill: #ff7f0e; stroke: #ff7f0e"/>
     <use xlink:href="#m471666fe08" x="177.060663" y="275.988829" style="fill: #ff7f0e; stroke: #ff7f0e"/>
     <use xlink:href="#m471666fe08" x="180.660083" y="275.662732" style="fill: #ff7f0e; stroke: #ff7f0e"/>
     <use xlink:href="#m471666fe08" x="184.259502" y="273.624622" style="fill: #ff7f0e; stroke: #ff7f0e"/>
     <use xlink:href="#m471666fe08" x="187.858922" y="276.831248" style="fill: #ff7f0e; stroke: #ff7f0e"/>
     <use xlink:href="#m471666fe08" x="191.458342" y="272.990543" style="fill: #ff7f0e; stroke: #ff7f0e"/>
     <use xlink:href="#m471666fe08" x="195.057762" y="276.785957" style="fill: #ff7f0e; stroke: #ff7f0e"/>
     <use xlink:href="#m471666fe08" x="198.657182" y="275.93448" style="fill: #ff7f0e; stroke: #ff7f0e"/>
     <use xlink:href="#m471666fe08" x="202.256602" y="273.624622" style="fill: #ff7f0e; stroke: #ff7f0e"/>
     <use xlink:href="#m471666fe08" x="205.856022" y="274.83843" style="fill: #ff7f0e; stroke: #ff7f0e"/>
     <use xlink:href="#m471666fe08" x="209.455442" y="275.762373" style="fill: #ff7f0e; stroke: #ff7f0e"/>
     <use xlink:href="#m471666fe08" x="213.054862" y="276.414568" style="fill: #ff7f0e; stroke: #ff7f0e"/>
     <use xlink:href="#m471666fe08" x="216.654281" y="276.423626" style="fill: #ff7f0e; stroke: #ff7f0e"/>
     <use xlink:href="#m471666fe08" x="220.253701" y="276.106587" style="fill: #ff7f0e; stroke: #ff7f0e"/>
     <use xlink:href="#m471666fe08" x="223.853121" y="275.916363" style="fill: #ff7f0e; stroke: #ff7f0e"/>
     <use xlink:href="#m471666fe08" x="227.452541" y="276.378335" style="fill: #ff7f0e; stroke: #ff7f0e"/>
     <use xlink:href="#m471666fe08" x="231.051961" y="276.323985" style="fill: #ff7f0e; stroke: #ff7f0e"/>
     <use xlink:href="#m471666fe08" x="234.651381" y="271.350997" style="fill: #ff7f0e; stroke: #ff7f0e"/>
     <use xlink:href="#m471666fe08" x="238.250801" y="275.889188" style="fill: #ff7f0e; stroke: #ff7f0e"/>
     <use xlink:href="#m471666fe08" x="241.850221" y="276.14282" style="fill: #ff7f0e; stroke: #ff7f0e"/>
     <use xlink:href="#m471666fe08" x="245.449641" y="276.233403" style="fill: #ff7f0e; stroke: #ff7f0e"/>
     <use xlink:href="#m471666fe08" x="249.04906" y="275.88013" style="fill: #ff7f0e; stroke: #ff7f0e"/>
     <use xlink:href="#m471666fe08" x="252.64848" y="276.749724" style="fill: #ff7f0e; stroke: #ff7f0e"/>
     <use xlink:href="#m471666fe08" x="256.2479" y="276.287752" style="fill: #ff7f0e; stroke: #ff7f0e"/>
     <use xlink:href="#m471666fe08" x="259.84732" y="276.115645" style="fill: #ff7f0e; stroke: #ff7f0e"/>
     <use xlink:href="#m471666fe08" x="263.44674" y="276.025062" style="fill: #ff7f0e; stroke: #ff7f0e"/>
     <use xlink:href="#m471666fe08" x="267.04616" y="276.740666" style="fill: #ff7f0e; stroke: #ff7f0e"/>
     <use xlink:href="#m471666fe08" x="270.64558" y="264.040975" style="fill: #ff7f0e; stroke: #ff7f0e"/>
     <use xlink:href="#m471666fe08" x="274.245" y="272.936193" style="fill: #ff7f0e; stroke: #ff7f0e"/>
     <use xlink:href="#m471666fe08" x="277.84442" y="275.997888" style="fill: #ff7f0e; stroke: #ff7f0e"/>
     <use xlink:href="#m471666fe08" x="281.443839" y="276.930889" style="fill: #ff7f0e; stroke: #ff7f0e"/>
     <use xlink:href="#m471666fe08" x="285.043259" y="276.19717" style="fill: #ff7f0e; stroke: #ff7f0e"/>
     <use xlink:href="#m471666fe08" x="288.642679" y="276.215286" style="fill: #ff7f0e; stroke: #ff7f0e"/>
     <use xlink:href="#m471666fe08" x="292.242099" y="274.874663" style="fill: #ff7f0e; stroke: #ff7f0e"/>
     <use xlink:href="#m471666fe08" x="295.841519" y="276.496092" style="fill: #ff7f0e; stroke: #ff7f0e"/>
     <use xlink:href="#m471666fe08" x="299.440939" y="275.871072" style="fill: #ff7f0e; stroke: #ff7f0e"/>
     <use xlink:href="#m471666fe08" x="303.040359" y="273.724263" style="fill: #ff7f0e; stroke: #ff7f0e"/>
     <use xlink:href="#m471666fe08" x="306.639779" y="276.14282" style="fill: #ff7f0e; stroke: #ff7f0e"/>
     <use xlink:href="#m471666fe08" x="310.239199" y="276.387393" style="fill: #ff7f0e; stroke: #ff7f0e"/>
     <use xlink:href="#m471666fe08" x="313.838618" y="273.57933" style="fill: #ff7f0e; stroke: #ff7f0e"/>
     <use xlink:href="#m471666fe08" x="317.438038" y="275.898247" style="fill: #ff7f0e; stroke: #ff7f0e"/>
     <use xlink:href="#m471666fe08" x="321.037458" y="276.396451" style="fill: #ff7f0e; stroke: #ff7f0e"/>
     <use xlink:href="#m471666fe08" x="324.636878" y="276.586675" style="fill: #ff7f0e; stroke: #ff7f0e"/>
     <use xlink:href="#m471666fe08" x="328.236298" y="273.470631" style="fill: #ff7f0e; stroke: #ff7f0e"/>
     <use xlink:href="#m471666fe08" x="331.835718" y="276.686316" style="fill: #ff7f0e; stroke: #ff7f0e"/>
     <use xlink:href="#m471666fe08" x="335.435138" y="273.253233" style="fill: #ff7f0e; stroke: #ff7f0e"/>
     <use xlink:href="#m471666fe08" x="339.034558" y="274.059419" style="fill: #ff7f0e; stroke: #ff7f0e"/>
     <use xlink:href="#m471666fe08" x="342.633978" y="276.278694" style="fill: #ff7f0e; stroke: #ff7f0e"/>
     <use xlink:href="#m471666fe08" x="346.233397" y="275.889188" style="fill: #ff7f0e; stroke: #ff7f0e"/>
     <use xlink:href="#m471666fe08" x="349.832817" y="276.079412" style="fill: #ff7f0e; stroke: #ff7f0e"/>
     <use xlink:href="#m471666fe08" x="353.432237" y="276.19717" style="fill: #ff7f0e; stroke: #ff7f0e"/>
     <use xlink:href="#m471666fe08" x="357.031657" y="276.242461" style="fill: #ff7f0e; stroke: #ff7f0e"/>
     <use xlink:href="#m471666fe08" x="360.631077" y="276.432684" style="fill: #ff7f0e; stroke: #ff7f0e"/>
     <use xlink:href="#m471666fe08" x="364.230497" y="276.87654" style="fill: #ff7f0e; stroke: #ff7f0e"/>
     <use xlink:href="#m471666fe08" x="367.829917" y="276.305869" style="fill: #ff7f0e; stroke: #ff7f0e"/>
     <use xlink:href="#m471666fe08" x="371.429337" y="276.224344" style="fill: #ff7f0e; stroke: #ff7f0e"/>
     <use xlink:href="#m471666fe08" x="375.028757" y="274.602915" style="fill: #ff7f0e; stroke: #ff7f0e"/>
     <use xlink:href="#m471666fe08" x="378.628176" y="276.659141" style="fill: #ff7f0e; stroke: #ff7f0e"/>
     <use xlink:href="#m471666fe08" x="382.227596" y="273.832962" style="fill: #ff7f0e; stroke: #ff7f0e"/>
     <use xlink:href="#m471666fe08" x="385.827016" y="276.151878" style="fill: #ff7f0e; stroke: #ff7f0e"/>
     <use xlink:href="#m471666fe08" x="389.426436" y="265.254783" style="fill: #ff7f0e; stroke: #ff7f0e"/>
     <use xlink:href="#m471666fe08" x="393.025856" y="276.19717" style="fill: #ff7f0e; stroke: #ff7f0e"/>
     <use xlink:href="#m471666fe08" x="396.625276" y="275.997888" style="fill: #ff7f0e; stroke: #ff7f0e"/>
     <use xlink:href="#m471666fe08" x="400.224696" y="276.006946" style="fill: #ff7f0e; stroke: #ff7f0e"/>
     <use xlink:href="#m471666fe08" x="403.824116" y="273.63368" style="fill: #ff7f0e; stroke: #ff7f0e"/>
     <use xlink:href="#m471666fe08" x="407.423536" y="272.193416" style="fill: #ff7f0e; stroke: #ff7f0e"/>
     <use xlink:href="#m471666fe08" x="411.022955" y="273.316641" style="fill: #ff7f0e; stroke: #ff7f0e"/>
     <use xlink:href="#m471666fe08" x="414.622375" y="276.206228" style="fill: #ff7f0e; stroke: #ff7f0e"/>
     <use xlink:href="#m471666fe08" x="418.221795" y="276.722549" style="fill: #ff7f0e; stroke: #ff7f0e"/>
     <use xlink:href="#m471666fe08" x="421.821215" y="276.949006" style="fill: #ff7f0e; stroke: #ff7f0e"/>
     <use xlink:href="#m471666fe08" x="425.420635" y="272.69162" style="fill: #ff7f0e; stroke: #ff7f0e"/>
    </g>
   </g>
   <g id="matplotlib.axis_1">
    <g id="xtick_1">
     <g id="line2d_1">
      <defs>
       <path id="mb67beda1d3" d="M 0 0 
L 0 3.5 
" style="stroke: #000000; stroke-width: 0.8"/>
      </defs>
      <g>
       <use xlink:href="#mb67beda1d3" x="69.078066" y="289.365625" style="stroke: #000000; stroke-width: 0.8"/>
      </g>
     </g>
     <g id="text_1">
      <!-- 0 -->
      <g transform="translate(64.306191 307.763281) scale(0.15 -0.15)">
       <defs>
        <path id="DejaVuSans-30" d="M 2034 4250 
Q 1547 4250 1301 3770 
Q 1056 3291 1056 2328 
Q 1056 1369 1301 889 
Q 1547 409 2034 409 
Q 2525 409 2770 889 
Q 3016 1369 3016 2328 
Q 3016 3291 2770 3770 
Q 2525 4250 2034 4250 
z
M 2034 4750 
Q 2819 4750 3233 4129 
Q 3647 3509 3647 2328 
Q 3647 1150 3233 529 
Q 2819 -91 2034 -91 
Q 1250 -91 836 529 
Q 422 1150 422 2328 
Q 422 3509 836 4129 
Q 1250 4750 2034 4750 
z
" transform="scale(0.015625)"/>
       </defs>
       <use xlink:href="#DejaVuSans-30"/>
      </g>
     </g>
    </g>
    <g id="xtick_2">
     <g id="line2d_2">
      <g>
       <use xlink:href="#mb67beda1d3" x="141.066464" y="289.365625" style="stroke: #000000; stroke-width: 0.8"/>
      </g>
     </g>
     <g id="text_2">
      <!-- 20 -->
      <g transform="translate(131.522714 307.763281) scale(0.15 -0.15)">
       <defs>
        <path id="DejaVuSans-32" d="M 1228 531 
L 3431 531 
L 3431 0 
L 469 0 
L 469 531 
Q 828 903 1448 1529 
Q 2069 2156 2228 2338 
Q 2531 2678 2651 2914 
Q 2772 3150 2772 3378 
Q 2772 3750 2511 3984 
Q 2250 4219 1831 4219 
Q 1534 4219 1204 4116 
Q 875 4013 500 3803 
L 500 4441 
Q 881 4594 1212 4672 
Q 1544 4750 1819 4750 
Q 2544 4750 2975 4387 
Q 3406 4025 3406 3419 
Q 3406 3131 3298 2873 
Q 3191 2616 2906 2266 
Q 2828 2175 2409 1742 
Q 1991 1309 1228 531 
z
" transform="scale(0.015625)"/>
       </defs>
       <use xlink:href="#DejaVuSans-32"/>
       <use xlink:href="#DejaVuSans-30" x="63.623047"/>
      </g>
     </g>
    </g>
    <g id="xtick_3">
     <g id="line2d_3">
      <g>
       <use xlink:href="#mb67beda1d3" x="213.054862" y="289.365625" style="stroke: #000000; stroke-width: 0.8"/>
      </g>
     </g>
     <g id="text_3">
      <!-- 40 -->
      <g transform="translate(203.511112 307.763281) scale(0.15 -0.15)">
       <defs>
        <path id="DejaVuSans-34" d="M 2419 4116 
L 825 1625 
L 2419 1625 
L 2419 4116 
z
M 2253 4666 
L 3047 4666 
L 3047 1625 
L 3713 1625 
L 3713 1100 
L 3047 1100 
L 3047 0 
L 2419 0 
L 2419 1100 
L 313 1100 
L 313 1709 
L 2253 4666 
z
" transform="scale(0.015625)"/>
       </defs>
       <use xlink:href="#DejaVuSans-34"/>
       <use xlink:href="#DejaVuSans-30" x="63.623047"/>
      </g>
     </g>
    </g>
    <g id="xtick_4">
     <g id="line2d_4">
      <g>
       <use xlink:href="#mb67beda1d3" x="285.043259" y="289.365625" style="stroke: #000000; stroke-width: 0.8"/>
      </g>
     </g>
     <g id="text_4">
      <!-- 60 -->
      <g transform="translate(275.499509 307.763281) scale(0.15 -0.15)">
       <defs>
        <path id="DejaVuSans-36" d="M 2113 2584 
Q 1688 2584 1439 2293 
Q 1191 2003 1191 1497 
Q 1191 994 1439 701 
Q 1688 409 2113 409 
Q 2538 409 2786 701 
Q 3034 994 3034 1497 
Q 3034 2003 2786 2293 
Q 2538 2584 2113 2584 
z
M 3366 4563 
L 3366 3988 
Q 3128 4100 2886 4159 
Q 2644 4219 2406 4219 
Q 1781 4219 1451 3797 
Q 1122 3375 1075 2522 
Q 1259 2794 1537 2939 
Q 1816 3084 2150 3084 
Q 2853 3084 3261 2657 
Q 3669 2231 3669 1497 
Q 3669 778 3244 343 
Q 2819 -91 2113 -91 
Q 1303 -91 875 529 
Q 447 1150 447 2328 
Q 447 3434 972 4092 
Q 1497 4750 2381 4750 
Q 2619 4750 2861 4703 
Q 3103 4656 3366 4563 
z
" transform="scale(0.015625)"/>
       </defs>
       <use xlink:href="#DejaVuSans-36"/>
       <use xlink:href="#DejaVuSans-30" x="63.623047"/>
      </g>
     </g>
    </g>
    <g id="xtick_5">
     <g id="line2d_5">
      <g>
       <use xlink:href="#mb67beda1d3" x="357.031657" y="289.365625" style="stroke: #000000; stroke-width: 0.8"/>
      </g>
     </g>
     <g id="text_5">
      <!-- 80 -->
      <g transform="translate(347.487907 307.763281) scale(0.15 -0.15)">
       <defs>
        <path id="DejaVuSans-38" d="M 2034 2216 
Q 1584 2216 1326 1975 
Q 1069 1734 1069 1313 
Q 1069 891 1326 650 
Q 1584 409 2034 409 
Q 2484 409 2743 651 
Q 3003 894 3003 1313 
Q 3003 1734 2745 1975 
Q 2488 2216 2034 2216 
z
M 1403 2484 
Q 997 2584 770 2862 
Q 544 3141 544 3541 
Q 544 4100 942 4425 
Q 1341 4750 2034 4750 
Q 2731 4750 3128 4425 
Q 3525 4100 3525 3541 
Q 3525 3141 3298 2862 
Q 3072 2584 2669 2484 
Q 3125 2378 3379 2068 
Q 3634 1759 3634 1313 
Q 3634 634 3220 271 
Q 2806 -91 2034 -91 
Q 1263 -91 848 271 
Q 434 634 434 1313 
Q 434 1759 690 2068 
Q 947 2378 1403 2484 
z
M 1172 3481 
Q 1172 3119 1398 2916 
Q 1625 2713 2034 2713 
Q 2441 2713 2670 2916 
Q 2900 3119 2900 3481 
Q 2900 3844 2670 4047 
Q 2441 4250 2034 4250 
Q 1625 4250 1398 4047 
Q 1172 3844 1172 3481 
z
" transform="scale(0.015625)"/>
       </defs>
       <use xlink:href="#DejaVuSans-38"/>
       <use xlink:href="#DejaVuSans-30" x="63.623047"/>
      </g>
     </g>
    </g>
    <g id="xtick_6">
     <g id="line2d_6">
      <g>
       <use xlink:href="#mb67beda1d3" x="429.020055" y="289.365625" style="stroke: #000000; stroke-width: 0.8"/>
      </g>
     </g>
     <g id="text_6">
      <!-- 100 -->
      <g transform="translate(414.70443 307.763281) scale(0.15 -0.15)">
       <defs>
        <path id="DejaVuSans-31" d="M 794 531 
L 1825 531 
L 1825 4091 
L 703 3866 
L 703 4441 
L 1819 4666 
L 2450 4666 
L 2450 531 
L 3481 531 
L 3481 0 
L 794 0 
L 794 531 
z
" transform="scale(0.015625)"/>
       </defs>
       <use xlink:href="#DejaVuSans-31"/>
       <use xlink:href="#DejaVuSans-30" x="63.623047"/>
       <use xlink:href="#DejaVuSans-30" x="127.246094"/>
      </g>
     </g>
    </g>
    <g id="text_7">
     <!-- measurement -->
     <g transform="translate(194.929819 326.280469) scale(0.15 -0.15)">
      <defs>
       <path id="DejaVuSans-6d" d="M 3328 2828 
Q 3544 3216 3844 3400 
Q 4144 3584 4550 3584 
Q 5097 3584 5394 3201 
Q 5691 2819 5691 2113 
L 5691 0 
L 5113 0 
L 5113 2094 
Q 5113 2597 4934 2840 
Q 4756 3084 4391 3084 
Q 3944 3084 3684 2787 
Q 3425 2491 3425 1978 
L 3425 0 
L 2847 0 
L 2847 2094 
Q 2847 2600 2669 2842 
Q 2491 3084 2119 3084 
Q 1678 3084 1418 2786 
Q 1159 2488 1159 1978 
L 1159 0 
L 581 0 
L 581 3500 
L 1159 3500 
L 1159 2956 
Q 1356 3278 1631 3431 
Q 1906 3584 2284 3584 
Q 2666 3584 2933 3390 
Q 3200 3197 3328 2828 
z
" transform="scale(0.015625)"/>
       <path id="DejaVuSans-65" d="M 3597 1894 
L 3597 1613 
L 953 1613 
Q 991 1019 1311 708 
Q 1631 397 2203 397 
Q 2534 397 2845 478 
Q 3156 559 3463 722 
L 3463 178 
Q 3153 47 2828 -22 
Q 2503 -91 2169 -91 
Q 1331 -91 842 396 
Q 353 884 353 1716 
Q 353 2575 817 3079 
Q 1281 3584 2069 3584 
Q 2775 3584 3186 3129 
Q 3597 2675 3597 1894 
z
M 3022 2063 
Q 3016 2534 2758 2815 
Q 2500 3097 2075 3097 
Q 1594 3097 1305 2825 
Q 1016 2553 972 2059 
L 3022 2063 
z
" transform="scale(0.015625)"/>
       <path id="DejaVuSans-61" d="M 2194 1759 
Q 1497 1759 1228 1600 
Q 959 1441 959 1056 
Q 959 750 1161 570 
Q 1363 391 1709 391 
Q 2188 391 2477 730 
Q 2766 1069 2766 1631 
L 2766 1759 
L 2194 1759 
z
M 3341 1997 
L 3341 0 
L 2766 0 
L 2766 531 
Q 2569 213 2275 61 
Q 1981 -91 1556 -91 
Q 1019 -91 701 211 
Q 384 513 384 1019 
Q 384 1609 779 1909 
Q 1175 2209 1959 2209 
L 2766 2209 
L 2766 2266 
Q 2766 2663 2505 2880 
Q 2244 3097 1772 3097 
Q 1472 3097 1187 3025 
Q 903 2953 641 2809 
L 641 3341 
Q 956 3463 1253 3523 
Q 1550 3584 1831 3584 
Q 2591 3584 2966 3190 
Q 3341 2797 3341 1997 
z
" transform="scale(0.015625)"/>
       <path id="DejaVuSans-73" d="M 2834 3397 
L 2834 2853 
Q 2591 2978 2328 3040 
Q 2066 3103 1784 3103 
Q 1356 3103 1142 2972 
Q 928 2841 928 2578 
Q 928 2378 1081 2264 
Q 1234 2150 1697 2047 
L 1894 2003 
Q 2506 1872 2764 1633 
Q 3022 1394 3022 966 
Q 3022 478 2636 193 
Q 2250 -91 1575 -91 
Q 1294 -91 989 -36 
Q 684 19 347 128 
L 347 722 
Q 666 556 975 473 
Q 1284 391 1588 391 
Q 1994 391 2212 530 
Q 2431 669 2431 922 
Q 2431 1156 2273 1281 
Q 2116 1406 1581 1522 
L 1381 1569 
Q 847 1681 609 1914 
Q 372 2147 372 2553 
Q 372 3047 722 3315 
Q 1072 3584 1716 3584 
Q 2034 3584 2315 3537 
Q 2597 3491 2834 3397 
z
" transform="scale(0.015625)"/>
       <path id="DejaVuSans-75" d="M 544 1381 
L 544 3500 
L 1119 3500 
L 1119 1403 
Q 1119 906 1312 657 
Q 1506 409 1894 409 
Q 2359 409 2629 706 
Q 2900 1003 2900 1516 
L 2900 3500 
L 3475 3500 
L 3475 0 
L 2900 0 
L 2900 538 
Q 2691 219 2414 64 
Q 2138 -91 1772 -91 
Q 1169 -91 856 284 
Q 544 659 544 1381 
z
M 1991 3584 
L 1991 3584 
z
" transform="scale(0.015625)"/>
       <path id="DejaVuSans-72" d="M 2631 2963 
Q 2534 3019 2420 3045 
Q 2306 3072 2169 3072 
Q 1681 3072 1420 2755 
Q 1159 2438 1159 1844 
L 1159 0 
L 581 0 
L 581 3500 
L 1159 3500 
L 1159 2956 
Q 1341 3275 1631 3429 
Q 1922 3584 2338 3584 
Q 2397 3584 2469 3576 
Q 2541 3569 2628 3553 
L 2631 2963 
z
" transform="scale(0.015625)"/>
       <path id="DejaVuSans-6e" d="M 3513 2113 
L 3513 0 
L 2938 0 
L 2938 2094 
Q 2938 2591 2744 2837 
Q 2550 3084 2163 3084 
Q 1697 3084 1428 2787 
Q 1159 2491 1159 1978 
L 1159 0 
L 581 0 
L 581 3500 
L 1159 3500 
L 1159 2956 
Q 1366 3272 1645 3428 
Q 1925 3584 2291 3584 
Q 2894 3584 3203 3211 
Q 3513 2838 3513 2113 
z
" transform="scale(0.015625)"/>
       <path id="DejaVuSans-74" d="M 1172 4494 
L 1172 3500 
L 2356 3500 
L 2356 3053 
L 1172 3053 
L 1172 1153 
Q 1172 725 1289 603 
Q 1406 481 1766 481 
L 2356 481 
L 2356 0 
L 1766 0 
Q 1100 0 847 248 
Q 594 497 594 1153 
L 594 3053 
L 172 3053 
L 172 3500 
L 594 3500 
L 594 4494 
L 1172 4494 
z
" transform="scale(0.015625)"/>
      </defs>
      <use xlink:href="#DejaVuSans-6d"/>
      <use xlink:href="#DejaVuSans-65" x="97.412109"/>
      <use xlink:href="#DejaVuSans-61" x="158.935547"/>
      <use xlink:href="#DejaVuSans-73" x="220.214844"/>
      <use xlink:href="#DejaVuSans-75" x="272.314453"/>
      <use xlink:href="#DejaVuSans-72" x="335.693359"/>
      <use xlink:href="#DejaVuSans-65" x="374.556641"/>
      <use xlink:href="#DejaVuSans-6d" x="436.080078"/>
      <use xlink:href="#DejaVuSans-65" x="533.492188"/>
      <use xlink:href="#DejaVuSans-6e" x="595.015625"/>
      <use xlink:href="#DejaVuSans-74" x="658.394531"/>
     </g>
    </g>
   </g>
   <g id="matplotlib.axis_2">
    <g id="ytick_1">
     <g id="line2d_7">
      <defs>
       <path id="m264fa8dfa1" d="M 0 0 
L -3.5 0 
" style="stroke: #000000; stroke-width: 0.8"/>
      </defs>
      <g>
       <use xlink:href="#m264fa8dfa1" x="51.260937" y="279.530612" style="stroke: #000000; stroke-width: 0.8"/>
      </g>
     </g>
     <g id="text_8">
      <!-- 0 -->
      <g transform="translate(34.717187 285.22944) scale(0.15 -0.15)">
       <use xlink:href="#DejaVuSans-30"/>
      </g>
     </g>
    </g>
    <g id="ytick_2">
     <g id="line2d_8">
      <g>
       <use xlink:href="#m264fa8dfa1" x="51.260937" y="241.537487" style="stroke: #000000; stroke-width: 0.8"/>
      </g>
     </g>
     <g id="text_9">
      <!-- 1 -->
      <g transform="translate(34.717187 247.236315) scale(0.15 -0.15)">
       <use xlink:href="#DejaVuSans-31"/>
      </g>
     </g>
    </g>
    <g id="ytick_3">
     <g id="line2d_9">
      <g>
       <use xlink:href="#m264fa8dfa1" x="51.260937" y="203.544362" style="stroke: #000000; stroke-width: 0.8"/>
      </g>
     </g>
     <g id="text_10">
      <!-- 2 -->
      <g transform="translate(34.717187 209.24319) scale(0.15 -0.15)">
       <use xlink:href="#DejaVuSans-32"/>
      </g>
     </g>
    </g>
    <g id="ytick_4">
     <g id="line2d_10">
      <g>
       <use xlink:href="#m264fa8dfa1" x="51.260937" y="165.551237" style="stroke: #000000; stroke-width: 0.8"/>
      </g>
     </g>
     <g id="text_11">
      <!-- 3 -->
      <g transform="translate(34.717187 171.250065) scale(0.15 -0.15)">
       <defs>
        <path id="DejaVuSans-33" d="M 2597 2516 
Q 3050 2419 3304 2112 
Q 3559 1806 3559 1356 
Q 3559 666 3084 287 
Q 2609 -91 1734 -91 
Q 1441 -91 1130 -33 
Q 819 25 488 141 
L 488 750 
Q 750 597 1062 519 
Q 1375 441 1716 441 
Q 2309 441 2620 675 
Q 2931 909 2931 1356 
Q 2931 1769 2642 2001 
Q 2353 2234 1838 2234 
L 1294 2234 
L 1294 2753 
L 1863 2753 
Q 2328 2753 2575 2939 
Q 2822 3125 2822 3475 
Q 2822 3834 2567 4026 
Q 2313 4219 1838 4219 
Q 1578 4219 1281 4162 
Q 984 4106 628 3988 
L 628 4550 
Q 988 4650 1302 4700 
Q 1616 4750 1894 4750 
Q 2613 4750 3031 4423 
Q 3450 4097 3450 3541 
Q 3450 3153 3228 2886 
Q 3006 2619 2597 2516 
z
" transform="scale(0.015625)"/>
       </defs>
       <use xlink:href="#DejaVuSans-33"/>
      </g>
     </g>
    </g>
    <g id="ytick_5">
     <g id="line2d_11">
      <g>
       <use xlink:href="#m264fa8dfa1" x="51.260937" y="127.558112" style="stroke: #000000; stroke-width: 0.8"/>
      </g>
     </g>
     <g id="text_12">
      <!-- 4 -->
      <g transform="translate(34.717187 133.25694) scale(0.15 -0.15)">
       <use xlink:href="#DejaVuSans-34"/>
      </g>
     </g>
    </g>
    <g id="ytick_6">
     <g id="line2d_12">
      <g>
       <use xlink:href="#m264fa8dfa1" x="51.260937" y="89.564987" style="stroke: #000000; stroke-width: 0.8"/>
      </g>
     </g>
     <g id="text_13">
      <!-- 5 -->
      <g transform="translate(34.717187 95.263815) scale(0.15 -0.15)">
       <defs>
        <path id="DejaVuSans-35" d="M 691 4666 
L 3169 4666 
L 3169 4134 
L 1269 4134 
L 1269 2991 
Q 1406 3038 1543 3061 
Q 1681 3084 1819 3084 
Q 2600 3084 3056 2656 
Q 3513 2228 3513 1497 
Q 3513 744 3044 326 
Q 2575 -91 1722 -91 
Q 1428 -91 1123 -41 
Q 819 9 494 109 
L 494 744 
Q 775 591 1075 516 
Q 1375 441 1709 441 
Q 2250 441 2565 725 
Q 2881 1009 2881 1497 
Q 2881 1984 2565 2268 
Q 2250 2553 1709 2553 
Q 1456 2553 1204 2497 
Q 953 2441 691 2322 
L 691 4666 
z
" transform="scale(0.015625)"/>
       </defs>
       <use xlink:href="#DejaVuSans-35"/>
      </g>
     </g>
    </g>
    <g id="ytick_7">
     <g id="line2d_13">
      <g>
       <use xlink:href="#m264fa8dfa1" x="51.260937" y="51.571862" style="stroke: #000000; stroke-width: 0.8"/>
      </g>
     </g>
     <g id="text_14">
      <!-- 6 -->
      <g transform="translate(34.717187 57.27069) scale(0.15 -0.15)">
       <use xlink:href="#DejaVuSans-36"/>
      </g>
     </g>
    </g>
    <g id="text_15">
     <!-- time [ms.] -->
     <g transform="translate(27.597656 191.558984) rotate(-90) scale(0.15 -0.15)">
      <defs>
       <path id="DejaVuSans-69" d="M 603 3500 
L 1178 3500 
L 1178 0 
L 603 0 
L 603 3500 
z
M 603 4863 
L 1178 4863 
L 1178 4134 
L 603 4134 
L 603 4863 
z
" transform="scale(0.015625)"/>
       <path id="DejaVuSans-20" transform="scale(0.015625)"/>
       <path id="DejaVuSans-5b" d="M 550 4863 
L 1875 4863 
L 1875 4416 
L 1125 4416 
L 1125 -397 
L 1875 -397 
L 1875 -844 
L 550 -844 
L 550 4863 
z
" transform="scale(0.015625)"/>
       <path id="DejaVuSans-2e" d="M 684 794 
L 1344 794 
L 1344 0 
L 684 0 
L 684 794 
z
" transform="scale(0.015625)"/>
       <path id="DejaVuSans-5d" d="M 1947 4863 
L 1947 -844 
L 622 -844 
L 622 -397 
L 1369 -397 
L 1369 4416 
L 622 4416 
L 622 4863 
L 1947 4863 
z
" transform="scale(0.015625)"/>
      </defs>
      <use xlink:href="#DejaVuSans-74"/>
      <use xlink:href="#DejaVuSans-69" x="39.208984"/>
      <use xlink:href="#DejaVuSans-6d" x="66.992188"/>
      <use xlink:href="#DejaVuSans-65" x="164.404297"/>
      <use xlink:href="#DejaVuSans-20" x="225.927734"/>
      <use xlink:href="#DejaVuSans-5b" x="257.714844"/>
      <use xlink:href="#DejaVuSans-6d" x="296.728516"/>
      <use xlink:href="#DejaVuSans-73" x="394.140625"/>
      <use xlink:href="#DejaVuSans-2e" x="446.240234"/>
      <use xlink:href="#DejaVuSans-5d" x="478.027344"/>
     </g>
    </g>
   </g>
   <g id="line2d_14">
    <path d="M 69.078066 234.261923 
L 425.420635 234.261923 
" clip-path="url(#p89304b9d41)" style="fill: none; stroke: #1f77b4; stroke-width: 1.5; stroke-linecap: square"/>
   </g>
   <g id="patch_3">
    <path d="M 51.260937 289.365625 
L 51.260937 16.2 
" style="fill: none; stroke: #000000; stroke-width: 0.8; stroke-linejoin: miter; stroke-linecap: square"/>
   </g>
   <g id="patch_4">
    <path d="M 443.237763 289.365625 
L 443.237763 16.2 
" style="fill: none; stroke: #000000; stroke-width: 0.8; stroke-linejoin: miter; stroke-linecap: square"/>
   </g>
   <g id="patch_5">
    <path d="M 51.260937 289.365625 
L 443.237763 289.365625 
" style="fill: none; stroke: #000000; stroke-width: 0.8; stroke-linejoin: miter; stroke-linecap: square"/>
   </g>
   <g id="patch_6">
    <path d="M 51.260937 16.2 
L 443.237763 16.2 
" style="fill: none; stroke: #000000; stroke-width: 0.8; stroke-linejoin: miter; stroke-linecap: square"/>
   </g>
   <g id="legend_1">
    <g id="patch_7">
     <path d="M 314.10417 94.251562 
L 432.737763 94.251562 
Q 435.737763 94.251562 435.737763 91.251562 
L 435.737763 26.7 
Q 435.737763 23.7 432.737763 23.7 
L 314.10417 23.7 
Q 311.10417 23.7 311.10417 26.7 
L 311.10417 91.251562 
Q 311.10417 94.251562 314.10417 94.251562 
z
" style="fill: #ffffff; opacity: 0.8; stroke: #cccccc; stroke-linejoin: miter"/>
    </g>
    <g id="PathCollection_3">
     <g>
      <use xlink:href="#mc3cb1e204a" x="332.10417" y="37.160156" style="fill: #1f77b4; stroke: #1f77b4"/>
     </g>
    </g>
    <g id="text_16">
     <!-- hits -->
     <g transform="translate(359.10417 41.097656) scale(0.15 -0.15)">
      <defs>
       <path id="DejaVuSans-68" d="M 3513 2113 
L 3513 0 
L 2938 0 
L 2938 2094 
Q 2938 2591 2744 2837 
Q 2550 3084 2163 3084 
Q 1697 3084 1428 2787 
Q 1159 2491 1159 1978 
L 1159 0 
L 581 0 
L 581 4863 
L 1159 4863 
L 1159 2956 
Q 1366 3272 1645 3428 
Q 1925 3584 2291 3584 
Q 2894 3584 3203 3211 
Q 3513 2838 3513 2113 
z
" transform="scale(0.015625)"/>
      </defs>
      <use xlink:href="#DejaVuSans-68"/>
      <use xlink:href="#DejaVuSans-69" x="63.378906"/>
      <use xlink:href="#DejaVuSans-74" x="91.162109"/>
      <use xlink:href="#DejaVuSans-73" x="130.371094"/>
     </g>
    </g>
    <g id="PathCollection_4">
     <g>
      <use xlink:href="#m471666fe08" x="332.10417" y="59.177344" style="fill: #ff7f0e; stroke: #ff7f0e"/>
     </g>
    </g>
    <g id="text_17">
     <!-- misses -->
     <g transform="translate(359.10417 63.114844) scale(0.15 -0.15)">
      <use xlink:href="#DejaVuSans-6d"/>
      <use xlink:href="#DejaVuSans-69" x="97.412109"/>
      <use xlink:href="#DejaVuSans-73" x="125.195312"/>
      <use xlink:href="#DejaVuSans-73" x="177.294922"/>
      <use xlink:href="#DejaVuSans-65" x="229.394531"/>
      <use xlink:href="#DejaVuSans-73" x="290.917969"/>
     </g>
    </g>
    <g id="line2d_15">
     <path d="M 317.10417 79.882031 
L 332.10417 79.882031 
L 347.10417 79.882031 
" style="fill: none; stroke: #1f77b4; stroke-width: 1.5; stroke-linecap: square"/>
    </g>
    <g id="text_18">
     <!-- threshold -->
     <g transform="translate(359.10417 85.132031) scale(0.15 -0.15)">
      <defs>
       <path id="DejaVuSans-6f" d="M 1959 3097 
Q 1497 3097 1228 2736 
Q 959 2375 959 1747 
Q 959 1119 1226 758 
Q 1494 397 1959 397 
Q 2419 397 2687 759 
Q 2956 1122 2956 1747 
Q 2956 2369 2687 2733 
Q 2419 3097 1959 3097 
z
M 1959 3584 
Q 2709 3584 3137 3096 
Q 3566 2609 3566 1747 
Q 3566 888 3137 398 
Q 2709 -91 1959 -91 
Q 1206 -91 779 398 
Q 353 888 353 1747 
Q 353 2609 779 3096 
Q 1206 3584 1959 3584 
z
" transform="scale(0.015625)"/>
       <path id="DejaVuSans-6c" d="M 603 4863 
L 1178 4863 
L 1178 0 
L 603 0 
L 603 4863 
z
" transform="scale(0.015625)"/>
       <path id="DejaVuSans-64" d="M 2906 2969 
L 2906 4863 
L 3481 4863 
L 3481 0 
L 2906 0 
L 2906 525 
Q 2725 213 2448 61 
Q 2172 -91 1784 -91 
Q 1150 -91 751 415 
Q 353 922 353 1747 
Q 353 2572 751 3078 
Q 1150 3584 1784 3584 
Q 2172 3584 2448 3432 
Q 2725 3281 2906 2969 
z
M 947 1747 
Q 947 1113 1208 752 
Q 1469 391 1925 391 
Q 2381 391 2643 752 
Q 2906 1113 2906 1747 
Q 2906 2381 2643 2742 
Q 2381 3103 1925 3103 
Q 1469 3103 1208 2742 
Q 947 2381 947 1747 
z
" transform="scale(0.015625)"/>
      </defs>
      <use xlink:href="#DejaVuSans-74"/>
      <use xlink:href="#DejaVuSans-68" x="39.208984"/>
      <use xlink:href="#DejaVuSans-72" x="102.587891"/>
      <use xlink:href="#DejaVuSans-65" x="141.451172"/>
      <use xlink:href="#DejaVuSans-73" x="202.974609"/>
      <use xlink:href="#DejaVuSans-68" x="255.074219"/>
      <use xlink:href="#DejaVuSans-6f" x="318.453125"/>
      <use xlink:href="#DejaVuSans-6c" x="379.634766"/>
      <use xlink:href="#DejaVuSans-64" x="407.417969"/>
     </g>
    </g>
   </g>
  </g>
 </g>
 <defs>
  <clipPath id="p89304b9d41">
   <rect x="51.260937" y="16.2" width="391.976826" height="273.165625"/>
  </clipPath>
 </defs>
</svg>
