<?xml version="1.0" encoding="utf-8" standalone="no"?>
<!DOCTYPE svg PUBLIC "-//W3C//DTD SVG 1.1//EN"
  "http://www.w3.org/Graphics/SVG/1.1/DTD/svg11.dtd">
<svg xmlns:xlink="http://www.w3.org/1999/xlink" width="460.8pt" height="345.6pt" viewBox="0 0 460.8 345.6" xmlns="http://www.w3.org/2000/svg" version="1.1">
 <metadata>
  <rdf:RDF xmlns:dc="http://purl.org/dc/elements/1.1/" xmlns:cc="http://creativecommons.org/ns#" xmlns:rdf="http://www.w3.org/1999/02/22-rdf-syntax-ns#">
   <cc:Work>
    <dc:type rdf:resource="http://purl.org/dc/dcmitype/StillImage"/>
    <dc:date>2024-05-10T02:08:39.837431</dc:date>
    <dc:format>image/svg+xml</dc:format>
    <dc:creator>
     <cc:Agent>
      <dc:title>Matplotlib v3.6.3, https://matplotlib.org/</dc:title>
     </cc:Agent>
    </dc:creator>
   </cc:Work>
  </rdf:RDF>
 </metadata>
 <defs>
  <style type="text/css">*{stroke-linejoin: round; stroke-linecap: butt}</style>
 </defs>
 <g id="figure_1">
  <g id="patch_1">
   <path d="M 0 345.6 
L 460.8 345.6 
L 460.8 0 
L 0 0 
z
" style="fill: #ffffff"/>
  </g>
  <g id="axes_1">
   <g id="patch_2">
    <path d="M 65.571875 289.365625 
L 443.237763 289.365625 
L 443.237763 16.2 
L 65.571875 16.2 
z
" style="fill: #ffffff"/>
   </g>
   <g id="PathCollection_1">
    <defs>
     <path id="m322854086c" d="M 0 3 
C 0.795609 3 1.55874 2.683901 2.12132 2.12132 
C 2.683901 1.55874 3 0.795609 3 0 
C 3 -0.795609 2.683901 -1.55874 2.12132 -2.12132 
C 1.55874 -2.683901 0.795609 -3 0 -3 
C -0.795609 -3 -1.55874 -2.683901 -2.12132 -2.12132 
C -2.683901 -1.55874 -3 -0.795609 -3 0 
C -3 0.795609 -2.683901 1.55874 -2.12132 2.12132 
C -1.55874 2.683901 -0.795609 3 0 3 
z
" style="stroke: #1f77b4"/>
    </defs>
    <g clip-path="url(#pca60ec0131)">
     <use xlink:href="#m322854086c" x="82.738506" y="260.324585" style="fill: #1f77b4; stroke: #1f77b4"/>
     <use xlink:href="#m322854086c" x="86.206513" y="261.848263" style="fill: #1f77b4; stroke: #1f77b4"/>
     <use xlink:href="#m322854086c" x="89.674519" y="275.779038" style="fill: #1f77b4; stroke: #1f77b4"/>
     <use xlink:href="#m322854086c" x="93.142525" y="265.194914" style="fill: #1f77b4; stroke: #1f77b4"/>
     <use xlink:href="#m322854086c" x="96.610532" y="265.140497" style="fill: #1f77b4; stroke: #1f77b4"/>
     <use xlink:href="#m322854086c" x="100.078538" y="265.031663" style="fill: #1f77b4; stroke: #1f77b4"/>
     <use xlink:href="#m322854086c" x="103.546544" y="266.827427" style="fill: #1f77b4; stroke: #1f77b4"/>
     <use xlink:href="#m322854086c" x="107.014551" y="274.853948" style="fill: #1f77b4; stroke: #1f77b4"/>
     <use xlink:href="#m322854086c" x="110.482557" y="265.467" style="fill: #1f77b4; stroke: #1f77b4"/>
     <use xlink:href="#m322854086c" x="113.950563" y="263.127065" style="fill: #1f77b4; stroke: #1f77b4"/>
     <use xlink:href="#m322854086c" x="117.41857" y="269.276196" style="fill: #1f77b4; stroke: #1f77b4"/>
     <use xlink:href="#m322854086c" x="120.886576" y="264.541909" style="fill: #1f77b4; stroke: #1f77b4"/>
     <use xlink:href="#m322854086c" x="124.354582" y="216.246743" style="fill: #1f77b4; stroke: #1f77b4"/>
     <use xlink:href="#m322854086c" x="127.822588" y="254.937293" style="fill: #1f77b4; stroke: #1f77b4"/>
     <use xlink:href="#m322854086c" x="131.290595" y="259.236243" style="fill: #1f77b4; stroke: #1f77b4"/>
     <use xlink:href="#m322854086c" x="134.758601" y="255.726341" style="fill: #1f77b4; stroke: #1f77b4"/>
     <use xlink:href="#m322854086c" x="138.226607" y="214.723064" style="fill: #1f77b4; stroke: #1f77b4"/>
     <use xlink:href="#m322854086c" x="141.694614" y="276.949006" style="fill: #1f77b4; stroke: #1f77b4"/>
     <use xlink:href="#m322854086c" x="145.16262" y="232.816746" style="fill: #1f77b4; stroke: #1f77b4"/>
     <use xlink:href="#m322854086c" x="148.630626" y="273.847232" style="fill: #1f77b4; stroke: #1f77b4"/>
     <use xlink:href="#m322854086c" x="152.098633" y="266.065588" style="fill: #1f77b4; stroke: #1f77b4"/>
     <use xlink:href="#m322854086c" x="155.566639" y="254.692416" style="fill: #1f77b4; stroke: #1f77b4"/>
     <use xlink:href="#m322854086c" x="159.034645" y="265.412583" style="fill: #1f77b4; stroke: #1f77b4"/>
     <use xlink:href="#m322854086c" x="162.502652" y="275.098825" style="fill: #1f77b4; stroke: #1f77b4"/>
     <use xlink:href="#m322854086c" x="165.970658" y="269.738741" style="fill: #1f77b4; stroke: #1f77b4"/>
     <use xlink:href="#m322854086c" x="169.438664" y="265.711877" style="fill: #1f77b4; stroke: #1f77b4"/>
     <use xlink:href="#m322854086c" x="172.906671" y="265.27654" style="fill: #1f77b4; stroke: #1f77b4"/>
     <use xlink:href="#m322854086c" x="176.374677" y="267.126721" style="fill: #1f77b4; stroke: #1f77b4"/>
     <use xlink:href="#m322854086c" x="179.842683" y="265.412583" style="fill: #1f77b4; stroke: #1f77b4"/>
     <use xlink:href="#m322854086c" x="183.31069" y="265.711877" style="fill: #1f77b4; stroke: #1f77b4"/>
     <use xlink:href="#m322854086c" x="186.778696" y="265.467" style="fill: #1f77b4; stroke: #1f77b4"/>
     <use xlink:href="#m322854086c" x="190.246702" y="274.908365" style="fill: #1f77b4; stroke: #1f77b4"/>
     <use xlink:href="#m322854086c" x="193.714709" y="264.868412" style="fill: #1f77b4; stroke: #1f77b4"/>
     <use xlink:href="#m322854086c" x="197.182715" y="266.310465" style="fill: #1f77b4; stroke: #1f77b4"/>
     <use xlink:href="#m322854086c" x="200.650721" y="249.985338" style="fill: #1f77b4; stroke: #1f77b4"/>
     <use xlink:href="#m322854086c" x="204.118728" y="241.088144" style="fill: #1f77b4; stroke: #1f77b4"/>
     <use xlink:href="#m322854086c" x="207.586734" y="265.439791" style="fill: #1f77b4; stroke: #1f77b4"/>
     <use xlink:href="#m322854086c" x="211.05474" y="222.940045" style="fill: #1f77b4; stroke: #1f77b4"/>
     <use xlink:href="#m322854086c" x="214.522747" y="274.772322" style="fill: #1f77b4; stroke: #1f77b4"/>
     <use xlink:href="#m322854086c" x="217.990753" y="272.976558" style="fill: #1f77b4; stroke: #1f77b4"/>
     <use xlink:href="#m322854086c" x="221.458759" y="275.153242" style="fill: #1f77b4; stroke: #1f77b4"/>
     <use xlink:href="#m322854086c" x="224.926765" y="265.031663" style="fill: #1f77b4; stroke: #1f77b4"/>
     <use xlink:href="#m322854086c" x="228.394772" y="269.38503" style="fill: #1f77b4; stroke: #1f77b4"/>
     <use xlink:href="#m322854086c" x="231.862778" y="268.106229" style="fill: #1f77b4; stroke: #1f77b4"/>
     <use xlink:href="#m322854086c" x="235.330784" y="263.997738" style="fill: #1f77b4; stroke: #1f77b4"/>
     <use xlink:href="#m322854086c" x="238.798791" y="275.452536" style="fill: #1f77b4; stroke: #1f77b4"/>
     <use xlink:href="#m322854086c" x="242.266797" y="266.39209" style="fill: #1f77b4; stroke: #1f77b4"/>
     <use xlink:href="#m322854086c" x="245.734803" y="266.77301" style="fill: #1f77b4; stroke: #1f77b4"/>
     <use xlink:href="#m322854086c" x="249.20281" y="254.25708" style="fill: #1f77b4; stroke: #1f77b4"/>
     <use xlink:href="#m322854086c" x="252.670816" y="270.14687" style="fill: #1f77b4; stroke: #1f77b4"/>
     <use xlink:href="#m322854086c" x="256.138822" y="266.201631" style="fill: #1f77b4; stroke: #1f77b4"/>
     <use xlink:href="#m322854086c" x="259.606829" y="265.249332" style="fill: #1f77b4; stroke: #1f77b4"/>
     <use xlink:href="#m322854086c" x="263.074835" y="276.214375" style="fill: #1f77b4; stroke: #1f77b4"/>
     <use xlink:href="#m322854086c" x="266.542841" y="228.953133" style="fill: #1f77b4; stroke: #1f77b4"/>
     <use xlink:href="#m322854086c" x="270.010848" y="265.847919" style="fill: #1f77b4; stroke: #1f77b4"/>
     <use xlink:href="#m322854086c" x="273.478854" y="264.677952" style="fill: #1f77b4; stroke: #1f77b4"/>
     <use xlink:href="#m322854086c" x="276.94686" y="259.426703" style="fill: #1f77b4; stroke: #1f77b4"/>
     <use xlink:href="#m322854086c" x="280.414867" y="236.598734" style="fill: #1f77b4; stroke: #1f77b4"/>
     <use xlink:href="#m322854086c" x="283.882873" y="265.820711" style="fill: #1f77b4; stroke: #1f77b4"/>
     <use xlink:href="#m322854086c" x="287.350879" y="265.548626" style="fill: #1f77b4; stroke: #1f77b4"/>
     <use xlink:href="#m322854086c" x="290.818886" y="264.35145" style="fill: #1f77b4; stroke: #1f77b4"/>
     <use xlink:href="#m322854086c" x="294.286892" y="264.677952" style="fill: #1f77b4; stroke: #1f77b4"/>
     <use xlink:href="#m322854086c" x="297.754898" y="266.364882" style="fill: #1f77b4; stroke: #1f77b4"/>
     <use xlink:href="#m322854086c" x="301.222905" y="267.072304" style="fill: #1f77b4; stroke: #1f77b4"/>
     <use xlink:href="#m322854086c" x="304.690911" y="263.807279" style="fill: #1f77b4; stroke: #1f77b4"/>
     <use xlink:href="#m322854086c" x="308.158917" y="268.759234" style="fill: #1f77b4; stroke: #1f77b4"/>
     <use xlink:href="#m322854086c" x="311.626924" y="265.65746" style="fill: #1f77b4; stroke: #1f77b4"/>
     <use xlink:href="#m322854086c" x="315.09493" y="265.385374" style="fill: #1f77b4; stroke: #1f77b4"/>
     <use xlink:href="#m322854086c" x="318.562936" y="244.924549" style="fill: #1f77b4; stroke: #1f77b4"/>
     <use xlink:href="#m322854086c" x="322.030942" y="269.493864" style="fill: #1f77b4; stroke: #1f77b4"/>
     <use xlink:href="#m322854086c" x="325.498949" y="265.793502" style="fill: #1f77b4; stroke: #1f77b4"/>
     <use xlink:href="#m322854086c" x="328.966955" y="265.548626" style="fill: #1f77b4; stroke: #1f77b4"/>
     <use xlink:href="#m322854086c" x="332.434961" y="265.929545" style="fill: #1f77b4; stroke: #1f77b4"/>
     <use xlink:href="#m322854086c" x="335.902968" y="274.309777" style="fill: #1f77b4; stroke: #1f77b4"/>
     <use xlink:href="#m322854086c" x="339.370974" y="267.045095" style="fill: #1f77b4; stroke: #1f77b4"/>
     <use xlink:href="#m322854086c" x="342.83898" y="267.507641" style="fill: #1f77b4; stroke: #1f77b4"/>
     <use xlink:href="#m322854086c" x="346.306987" y="266.092796" style="fill: #1f77b4; stroke: #1f77b4"/>
     <use xlink:href="#m322854086c" x="349.774993" y="274.908365" style="fill: #1f77b4; stroke: #1f77b4"/>
     <use xlink:href="#m322854086c" x="353.242999" y="265.684668" style="fill: #1f77b4; stroke: #1f77b4"/>
     <use xlink:href="#m322854086c" x="356.711006" y="265.548626" style="fill: #1f77b4; stroke: #1f77b4"/>
     <use xlink:href="#m322854086c" x="360.179012" y="265.521417" style="fill: #1f77b4; stroke: #1f77b4"/>
     <use xlink:href="#m322854086c" x="363.647018" y="264.950038" style="fill: #1f77b4; stroke: #1f77b4"/>
     <use xlink:href="#m322854086c" x="367.115025" y="258.474404" style="fill: #1f77b4; stroke: #1f77b4"/>
     <use xlink:href="#m322854086c" x="370.583031" y="265.766294" style="fill: #1f77b4; stroke: #1f77b4"/>
     <use xlink:href="#m322854086c" x="374.051037" y="264.650744" style="fill: #1f77b4; stroke: #1f77b4"/>
     <use xlink:href="#m322854086c" x="377.519044" y="271.153586" style="fill: #1f77b4; stroke: #1f77b4"/>
     <use xlink:href="#m322854086c" x="380.98705" y="262.827771" style="fill: #1f77b4; stroke: #1f77b4"/>
     <use xlink:href="#m322854086c" x="384.455056" y="265.031663" style="fill: #1f77b4; stroke: #1f77b4"/>
     <use xlink:href="#m322854086c" x="387.923063" y="266.446507" style="fill: #1f77b4; stroke: #1f77b4"/>
     <use xlink:href="#m322854086c" x="391.391069" y="270.446164" style="fill: #1f77b4; stroke: #1f77b4"/>
     <use xlink:href="#m322854086c" x="394.859075" y="265.412583" style="fill: #1f77b4; stroke: #1f77b4"/>
     <use xlink:href="#m322854086c" x="398.327082" y="258.964158" style="fill: #1f77b4; stroke: #1f77b4"/>
     <use xlink:href="#m322854086c" x="401.795088" y="274.581862" style="fill: #1f77b4; stroke: #1f77b4"/>
     <use xlink:href="#m322854086c" x="405.263094" y="272.75889" style="fill: #1f77b4; stroke: #1f77b4"/>
     <use xlink:href="#m322854086c" x="408.731101" y="243.917833" style="fill: #1f77b4; stroke: #1f77b4"/>
     <use xlink:href="#m322854086c" x="412.199107" y="274.418611" style="fill: #1f77b4; stroke: #1f77b4"/>
     <use xlink:href="#m322854086c" x="415.667113" y="269.248988" style="fill: #1f77b4; stroke: #1f77b4"/>
     <use xlink:href="#m322854086c" x="419.135119" y="257.712565" style="fill: #1f77b4; stroke: #1f77b4"/>
     <use xlink:href="#m322854086c" x="422.603126" y="270.065244" style="fill: #1f77b4; stroke: #1f77b4"/>
     <use xlink:href="#m322854086c" x="426.071132" y="270.310121" style="fill: #1f77b4; stroke: #1f77b4"/>
    </g>
   </g>
   <g id="PathCollection_2">
    <defs>
     <path id="mc110cb0e74" d="M 0 3 
C 0.795609 3 1.55874 2.683901 2.12132 2.12132 
C 2.683901 1.55874 3 0.795609 3 0 
C 3 -0.795609 2.683901 -1.55874 2.12132 -2.12132 
C 1.55874 -2.683901 0.795609 -3 0 -3 
C -0.795609 -3 -1.55874 -2.683901 -2.12132 -2.12132 
C -2.683901 -1.55874 -3 -0.795609 -3 0 
C -3 0.795609 -2.683901 1.55874 -2.12132 2.12132 
C -1.55874 2.683901 -0.795609 3 0 3 
z
" style="stroke: #ff7f0e"/>
    </defs>
    <g clip-path="url(#pca60ec0131)">
     <use xlink:href="#mc110cb0e74" x="82.738506" y="28.616619" style="fill: #ff7f0e; stroke: #ff7f0e"/>
     <use xlink:href="#mc110cb0e74" x="86.206513" y="254.093828" style="fill: #ff7f0e; stroke: #ff7f0e"/>
     <use xlink:href="#mc110cb0e74" x="89.674519" y="265.956754" style="fill: #ff7f0e; stroke: #ff7f0e"/>
     <use xlink:href="#mc110cb0e74" x="93.142525" y="263.725653" style="fill: #ff7f0e; stroke: #ff7f0e"/>
     <use xlink:href="#mc110cb0e74" x="96.610532" y="275.234867" style="fill: #ff7f0e; stroke: #ff7f0e"/>
     <use xlink:href="#mc110cb0e74" x="100.078538" y="265.08608" style="fill: #ff7f0e; stroke: #ff7f0e"/>
     <use xlink:href="#mc110cb0e74" x="103.546544" y="267.045095" style="fill: #ff7f0e; stroke: #ff7f0e"/>
     <use xlink:href="#mc110cb0e74" x="107.014551" y="263.099856" style="fill: #ff7f0e; stroke: #ff7f0e"/>
     <use xlink:href="#mc110cb0e74" x="110.482557" y="265.766294" style="fill: #ff7f0e; stroke: #ff7f0e"/>
     <use xlink:href="#mc110cb0e74" x="113.950563" y="265.031663" style="fill: #ff7f0e; stroke: #ff7f0e"/>
     <use xlink:href="#mc110cb0e74" x="117.41857" y="265.603043" style="fill: #ff7f0e; stroke: #ff7f0e"/>
     <use xlink:href="#mc110cb0e74" x="120.886576" y="265.65746" style="fill: #ff7f0e; stroke: #ff7f0e"/>
     <use xlink:href="#mc110cb0e74" x="124.354582" y="270.609415" style="fill: #ff7f0e; stroke: #ff7f0e"/>
     <use xlink:href="#mc110cb0e74" x="127.822588" y="225.27998" style="fill: #ff7f0e; stroke: #ff7f0e"/>
     <use xlink:href="#mc110cb0e74" x="131.290595" y="260.215751" style="fill: #ff7f0e; stroke: #ff7f0e"/>
     <use xlink:href="#mc110cb0e74" x="134.758601" y="259.535537" style="fill: #ff7f0e; stroke: #ff7f0e"/>
     <use xlink:href="#mc110cb0e74" x="138.226607" y="274.554654" style="fill: #ff7f0e; stroke: #ff7f0e"/>
     <use xlink:href="#mc110cb0e74" x="141.694614" y="241.931609" style="fill: #ff7f0e; stroke: #ff7f0e"/>
     <use xlink:href="#mc110cb0e74" x="145.16262" y="264.759578" style="fill: #ff7f0e; stroke: #ff7f0e"/>
     <use xlink:href="#mc110cb0e74" x="148.630626" y="264.324241" style="fill: #ff7f0e; stroke: #ff7f0e"/>
     <use xlink:href="#mc110cb0e74" x="152.098633" y="263.807279" style="fill: #ff7f0e; stroke: #ff7f0e"/>
     <use xlink:href="#mc110cb0e74" x="155.566639" y="264.786786" style="fill: #ff7f0e; stroke: #ff7f0e"/>
     <use xlink:href="#mc110cb0e74" x="159.034645" y="268.976902" style="fill: #ff7f0e; stroke: #ff7f0e"/>
     <use xlink:href="#mc110cb0e74" x="162.502652" y="258.36557" style="fill: #ff7f0e; stroke: #ff7f0e"/>
     <use xlink:href="#mc110cb0e74" x="165.970658" y="265.222123" style="fill: #ff7f0e; stroke: #ff7f0e"/>
     <use xlink:href="#mc110cb0e74" x="169.438664" y="266.174422" style="fill: #ff7f0e; stroke: #ff7f0e"/>
     <use xlink:href="#mc110cb0e74" x="172.906671" y="264.786786" style="fill: #ff7f0e; stroke: #ff7f0e"/>
     <use xlink:href="#mc110cb0e74" x="176.374677" y="228.436171" style="fill: #ff7f0e; stroke: #ff7f0e"/>
     <use xlink:href="#mc110cb0e74" x="179.842683" y="265.412583" style="fill: #ff7f0e; stroke: #ff7f0e"/>
     <use xlink:href="#mc110cb0e74" x="183.31069" y="265.793502" style="fill: #ff7f0e; stroke: #ff7f0e"/>
     <use xlink:href="#mc110cb0e74" x="186.778696" y="266.827427" style="fill: #ff7f0e; stroke: #ff7f0e"/>
     <use xlink:href="#mc110cb0e74" x="190.246702" y="265.766294" style="fill: #ff7f0e; stroke: #ff7f0e"/>
     <use xlink:href="#mc110cb0e74" x="193.714709" y="265.521417" style="fill: #ff7f0e; stroke: #ff7f0e"/>
     <use xlink:href="#mc110cb0e74" x="197.182715" y="275.234867" style="fill: #ff7f0e; stroke: #ff7f0e"/>
     <use xlink:href="#mc110cb0e74" x="200.650721" y="262.365226" style="fill: #ff7f0e; stroke: #ff7f0e"/>
     <use xlink:href="#mc110cb0e74" x="204.118728" y="265.548626" style="fill: #ff7f0e; stroke: #ff7f0e"/>
     <use xlink:href="#mc110cb0e74" x="207.586734" y="273.112601" style="fill: #ff7f0e; stroke: #ff7f0e"/>
     <use xlink:href="#mc110cb0e74" x="211.05474" y="262.229183" style="fill: #ff7f0e; stroke: #ff7f0e"/>
     <use xlink:href="#mc110cb0e74" x="214.522747" y="259.181826" style="fill: #ff7f0e; stroke: #ff7f0e"/>
     <use xlink:href="#mc110cb0e74" x="217.990753" y="182.889067" style="fill: #ff7f0e; stroke: #ff7f0e"/>
     <use xlink:href="#mc110cb0e74" x="221.458759" y="252.134813" style="fill: #ff7f0e; stroke: #ff7f0e"/>
     <use xlink:href="#mc110cb0e74" x="224.926765" y="264.677952" style="fill: #ff7f0e; stroke: #ff7f0e"/>
     <use xlink:href="#mc110cb0e74" x="228.394772" y="259.589954" style="fill: #ff7f0e; stroke: #ff7f0e"/>
     <use xlink:href="#mc110cb0e74" x="231.862778" y="262.637311" style="fill: #ff7f0e; stroke: #ff7f0e"/>
     <use xlink:href="#mc110cb0e74" x="235.330784" y="190.425834" style="fill: #ff7f0e; stroke: #ff7f0e"/>
     <use xlink:href="#mc110cb0e74" x="238.798791" y="264.977246" style="fill: #ff7f0e; stroke: #ff7f0e"/>
     <use xlink:href="#mc110cb0e74" x="242.266797" y="264.024947" style="fill: #ff7f0e; stroke: #ff7f0e"/>
     <use xlink:href="#mc110cb0e74" x="245.734803" y="265.630251" style="fill: #ff7f0e; stroke: #ff7f0e"/>
     <use xlink:href="#mc110cb0e74" x="249.20281" y="265.439791" style="fill: #ff7f0e; stroke: #ff7f0e"/>
     <use xlink:href="#mc110cb0e74" x="252.670816" y="271.180794" style="fill: #ff7f0e; stroke: #ff7f0e"/>
     <use xlink:href="#mc110cb0e74" x="256.138822" y="262.555686" style="fill: #ff7f0e; stroke: #ff7f0e"/>
     <use xlink:href="#mc110cb0e74" x="259.606829" y="262.2836" style="fill: #ff7f0e; stroke: #ff7f0e"/>
     <use xlink:href="#mc110cb0e74" x="263.074835" y="265.820711" style="fill: #ff7f0e; stroke: #ff7f0e"/>
     <use xlink:href="#mc110cb0e74" x="266.542841" y="221.470783" style="fill: #ff7f0e; stroke: #ff7f0e"/>
     <use xlink:href="#mc110cb0e74" x="270.010848" y="273.248644" style="fill: #ff7f0e; stroke: #ff7f0e"/>
     <use xlink:href="#mc110cb0e74" x="273.478854" y="254.420331" style="fill: #ff7f0e; stroke: #ff7f0e"/>
     <use xlink:href="#mc110cb0e74" x="276.94686" y="266.310465" style="fill: #ff7f0e; stroke: #ff7f0e"/>
     <use xlink:href="#mc110cb0e74" x="280.414867" y="275.860664" style="fill: #ff7f0e; stroke: #ff7f0e"/>
     <use xlink:href="#mc110cb0e74" x="283.882873" y="273.547938" style="fill: #ff7f0e; stroke: #ff7f0e"/>
     <use xlink:href="#mc110cb0e74" x="287.350879" y="265.467" style="fill: #ff7f0e; stroke: #ff7f0e"/>
     <use xlink:href="#mc110cb0e74" x="290.818886" y="215.103984" style="fill: #ff7f0e; stroke: #ff7f0e"/>
     <use xlink:href="#mc110cb0e74" x="294.286892" y="262.392434" style="fill: #ff7f0e; stroke: #ff7f0e"/>
     <use xlink:href="#mc110cb0e74" x="297.754898" y="264.378658" style="fill: #ff7f0e; stroke: #ff7f0e"/>
     <use xlink:href="#mc110cb0e74" x="301.222905" y="261.059216" style="fill: #ff7f0e; stroke: #ff7f0e"/>
     <use xlink:href="#mc110cb0e74" x="304.690911" y="265.27654" style="fill: #ff7f0e; stroke: #ff7f0e"/>
     <use xlink:href="#mc110cb0e74" x="308.158917" y="231.646779" style="fill: #ff7f0e; stroke: #ff7f0e"/>
     <use xlink:href="#mc110cb0e74" x="311.626924" y="241.632315" style="fill: #ff7f0e; stroke: #ff7f0e"/>
     <use xlink:href="#mc110cb0e74" x="315.09493" y="231.374694" style="fill: #ff7f0e; stroke: #ff7f0e"/>
     <use xlink:href="#mc110cb0e74" x="318.562936" y="253.87616" style="fill: #ff7f0e; stroke: #ff7f0e"/>
     <use xlink:href="#mc110cb0e74" x="322.030942" y="263.154274" style="fill: #ff7f0e; stroke: #ff7f0e"/>
     <use xlink:href="#mc110cb0e74" x="325.498949" y="275.207659" style="fill: #ff7f0e; stroke: #ff7f0e"/>
     <use xlink:href="#mc110cb0e74" x="328.966955" y="267.453224" style="fill: #ff7f0e; stroke: #ff7f0e"/>
     <use xlink:href="#mc110cb0e74" x="332.434961" y="259.916457" style="fill: #ff7f0e; stroke: #ff7f0e"/>
     <use xlink:href="#mc110cb0e74" x="335.902968" y="239.183546" style="fill: #ff7f0e; stroke: #ff7f0e"/>
     <use xlink:href="#mc110cb0e74" x="339.370974" y="274.663488" style="fill: #ff7f0e; stroke: #ff7f0e"/>
     <use xlink:href="#mc110cb0e74" x="342.83898" y="266.337673" style="fill: #ff7f0e; stroke: #ff7f0e"/>
     <use xlink:href="#mc110cb0e74" x="346.306987" y="264.215407" style="fill: #ff7f0e; stroke: #ff7f0e"/>
     <use xlink:href="#mc110cb0e74" x="349.774993" y="275.506953" style="fill: #ff7f0e; stroke: #ff7f0e"/>
     <use xlink:href="#mc110cb0e74" x="353.242999" y="212.410338" style="fill: #ff7f0e; stroke: #ff7f0e"/>
     <use xlink:href="#mc110cb0e74" x="356.711006" y="262.2836" style="fill: #ff7f0e; stroke: #ff7f0e"/>
     <use xlink:href="#mc110cb0e74" x="360.179012" y="264.35145" style="fill: #ff7f0e; stroke: #ff7f0e"/>
     <use xlink:href="#mc110cb0e74" x="363.647018" y="266.120005" style="fill: #ff7f0e; stroke: #ff7f0e"/>
     <use xlink:href="#mc110cb0e74" x="367.115025" y="265.27654" style="fill: #ff7f0e; stroke: #ff7f0e"/>
     <use xlink:href="#mc110cb0e74" x="370.583031" y="258.039067" style="fill: #ff7f0e; stroke: #ff7f0e"/>
     <use xlink:href="#mc110cb0e74" x="374.051037" y="253.223155" style="fill: #ff7f0e; stroke: #ff7f0e"/>
     <use xlink:href="#mc110cb0e74" x="377.519044" y="254.529165" style="fill: #ff7f0e; stroke: #ff7f0e"/>
     <use xlink:href="#mc110cb0e74" x="380.98705" y="250.719969" style="fill: #ff7f0e; stroke: #ff7f0e"/>
     <use xlink:href="#mc110cb0e74" x="384.455056" y="265.058872" style="fill: #ff7f0e; stroke: #ff7f0e"/>
     <use xlink:href="#mc110cb0e74" x="387.923063" y="267.426015" style="fill: #ff7f0e; stroke: #ff7f0e"/>
     <use xlink:href="#mc110cb0e74" x="391.391069" y="241.305812" style="fill: #ff7f0e; stroke: #ff7f0e"/>
     <use xlink:href="#mc110cb0e74" x="394.859075" y="256.080052" style="fill: #ff7f0e; stroke: #ff7f0e"/>
     <use xlink:href="#mc110cb0e74" x="398.327082" y="275.153242" style="fill: #ff7f0e; stroke: #ff7f0e"/>
     <use xlink:href="#mc110cb0e74" x="401.795088" y="272.867724" style="fill: #ff7f0e; stroke: #ff7f0e"/>
     <use xlink:href="#mc110cb0e74" x="405.263094" y="250.937637" style="fill: #ff7f0e; stroke: #ff7f0e"/>
     <use xlink:href="#mc110cb0e74" x="408.731101" y="263.344733" style="fill: #ff7f0e; stroke: #ff7f0e"/>
     <use xlink:href="#mc110cb0e74" x="412.199107" y="265.793502" style="fill: #ff7f0e; stroke: #ff7f0e"/>
     <use xlink:href="#mc110cb0e74" x="415.667113" y="261.548969" style="fill: #ff7f0e; stroke: #ff7f0e"/>
     <use xlink:href="#mc110cb0e74" x="419.135119" y="257.957442" style="fill: #ff7f0e; stroke: #ff7f0e"/>
     <use xlink:href="#mc110cb0e74" x="422.603126" y="272.105885" style="fill: #ff7f0e; stroke: #ff7f0e"/>
     <use xlink:href="#mc110cb0e74" x="426.071132" y="274.772322" style="fill: #ff7f0e; stroke: #ff7f0e"/>
    </g>
   </g>
   <g id="matplotlib.axis_1">
    <g id="xtick_1">
     <g id="line2d_1">
      <defs>
       <path id="m2dccc49a18" d="M 0 0 
L 0 3.5 
" style="stroke: #000000; stroke-width: 0.8"/>
      </defs>
      <g>
       <use xlink:href="#m2dccc49a18" x="82.738506" y="289.365625" style="stroke: #000000; stroke-width: 0.8"/>
      </g>
     </g>
     <g id="text_1">
      <!-- 0 -->
      <g transform="translate(77.966631 307.763281) scale(0.15 -0.15)">
       <defs>
        <path id="DejaVuSans-30" d="M 2034 4250 
Q 1547 4250 1301 3770 
Q 1056 3291 1056 2328 
Q 1056 1369 1301 889 
Q 1547 409 2034 409 
Q 2525 409 2770 889 
Q 3016 1369 3016 2328 
Q 3016 3291 2770 3770 
Q 2525 4250 2034 4250 
z
M 2034 4750 
Q 2819 4750 3233 4129 
Q 3647 3509 3647 2328 
Q 3647 1150 3233 529 
Q 2819 -91 2034 -91 
Q 1250 -91 836 529 
Q 422 1150 422 2328 
Q 422 3509 836 4129 
Q 1250 4750 2034 4750 
z
" transform="scale(0.015625)"/>
       </defs>
       <use xlink:href="#DejaVuSans-30"/>
      </g>
     </g>
    </g>
    <g id="xtick_2">
     <g id="line2d_2">
      <g>
       <use xlink:href="#m2dccc49a18" x="152.098633" y="289.365625" style="stroke: #000000; stroke-width: 0.8"/>
      </g>
     </g>
     <g id="text_2">
      <!-- 20 -->
      <g transform="translate(142.554883 307.763281) scale(0.15 -0.15)">
       <defs>
        <path id="DejaVuSans-32" d="M 1228 531 
L 3431 531 
L 3431 0 
L 469 0 
L 469 531 
Q 828 903 1448 1529 
Q 2069 2156 2228 2338 
Q 2531 2678 2651 2914 
Q 2772 3150 2772 3378 
Q 2772 3750 2511 3984 
Q 2250 4219 1831 4219 
Q 1534 4219 1204 4116 
Q 875 4013 500 3803 
L 500 4441 
Q 881 4594 1212 4672 
Q 1544 4750 1819 4750 
Q 2544 4750 2975 4387 
Q 3406 4025 3406 3419 
Q 3406 3131 3298 2873 
Q 3191 2616 2906 2266 
Q 2828 2175 2409 1742 
Q 1991 1309 1228 531 
z
" transform="scale(0.015625)"/>
       </defs>
       <use xlink:href="#DejaVuSans-32"/>
       <use xlink:href="#DejaVuSans-30" x="63.623047"/>
      </g>
     </g>
    </g>
    <g id="xtick_3">
     <g id="line2d_3">
      <g>
       <use xlink:href="#m2dccc49a18" x="221.458759" y="289.365625" style="stroke: #000000; stroke-width: 0.8"/>
      </g>
     </g>
     <g id="text_3">
      <!-- 40 -->
      <g transform="translate(211.915009 307.763281) scale(0.15 -0.15)">
       <defs>
        <path id="DejaVuSans-34" d="M 2419 4116 
L 825 1625 
L 2419 1625 
L 2419 4116 
z
M 2253 4666 
L 3047 4666 
L 3047 1625 
L 3713 1625 
L 3713 1100 
L 3047 1100 
L 3047 0 
L 2419 0 
L 2419 1100 
L 313 1100 
L 313 1709 
L 2253 4666 
z
" transform="scale(0.015625)"/>
       </defs>
       <use xlink:href="#DejaVuSans-34"/>
       <use xlink:href="#DejaVuSans-30" x="63.623047"/>
      </g>
     </g>
    </g>
    <g id="xtick_4">
     <g id="line2d_4">
      <g>
       <use xlink:href="#m2dccc49a18" x="290.818886" y="289.365625" style="stroke: #000000; stroke-width: 0.8"/>
      </g>
     </g>
     <g id="text_4">
      <!-- 60 -->
      <g transform="translate(281.275136 307.763281) scale(0.15 -0.15)">
       <defs>
        <path id="DejaVuSans-36" d="M 2113 2584 
Q 1688 2584 1439 2293 
Q 1191 2003 1191 1497 
Q 1191 994 1439 701 
Q 1688 409 2113 409 
Q 2538 409 2786 701 
Q 3034 994 3034 1497 
Q 3034 2003 2786 2293 
Q 2538 2584 2113 2584 
z
M 3366 4563 
L 3366 3988 
Q 3128 4100 2886 4159 
Q 2644 4219 2406 4219 
Q 1781 4219 1451 3797 
Q 1122 3375 1075 2522 
Q 1259 2794 1537 2939 
Q 1816 3084 2150 3084 
Q 2853 3084 3261 2657 
Q 3669 2231 3669 1497 
Q 3669 778 3244 343 
Q 2819 -91 2113 -91 
Q 1303 -91 875 529 
Q 447 1150 447 2328 
Q 447 3434 972 4092 
Q 1497 4750 2381 4750 
Q 2619 4750 2861 4703 
Q 3103 4656 3366 4563 
z
" transform="scale(0.015625)"/>
       </defs>
       <use xlink:href="#DejaVuSans-36"/>
       <use xlink:href="#DejaVuSans-30" x="63.623047"/>
      </g>
     </g>
    </g>
    <g id="xtick_5">
     <g id="line2d_5">
      <g>
       <use xlink:href="#m2dccc49a18" x="360.179012" y="289.365625" style="stroke: #000000; stroke-width: 0.8"/>
      </g>
     </g>
     <g id="text_5">
      <!-- 80 -->
      <g transform="translate(350.635262 307.763281) scale(0.15 -0.15)">
       <defs>
        <path id="DejaVuSans-38" d="M 2034 2216 
Q 1584 2216 1326 1975 
Q 1069 1734 1069 1313 
Q 1069 891 1326 650 
Q 1584 409 2034 409 
Q 2484 409 2743 651 
Q 3003 894 3003 1313 
Q 3003 1734 2745 1975 
Q 2488 2216 2034 2216 
z
M 1403 2484 
Q 997 2584 770 2862 
Q 544 3141 544 3541 
Q 544 4100 942 4425 
Q 1341 4750 2034 4750 
Q 2731 4750 3128 4425 
Q 3525 4100 3525 3541 
Q 3525 3141 3298 2862 
Q 3072 2584 2669 2484 
Q 3125 2378 3379 2068 
Q 3634 1759 3634 1313 
Q 3634 634 3220 271 
Q 2806 -91 2034 -91 
Q 1263 -91 848 271 
Q 434 634 434 1313 
Q 434 1759 690 2068 
Q 947 2378 1403 2484 
z
M 1172 3481 
Q 1172 3119 1398 2916 
Q 1625 2713 2034 2713 
Q 2441 2713 2670 2916 
Q 2900 3119 2900 3481 
Q 2900 3844 2670 4047 
Q 2441 4250 2034 4250 
Q 1625 4250 1398 4047 
Q 1172 3844 1172 3481 
z
" transform="scale(0.015625)"/>
       </defs>
       <use xlink:href="#DejaVuSans-38"/>
       <use xlink:href="#DejaVuSans-30" x="63.623047"/>
      </g>
     </g>
    </g>
    <g id="xtick_6">
     <g id="line2d_6">
      <g>
       <use xlink:href="#m2dccc49a18" x="429.539138" y="289.365625" style="stroke: #000000; stroke-width: 0.8"/>
      </g>
     </g>
     <g id="text_6">
      <!-- 100 -->
      <g transform="translate(415.223513 307.763281) scale(0.15 -0.15)">
       <defs>
        <path id="DejaVuSans-31" d="M 794 531 
L 1825 531 
L 1825 4091 
L 703 3866 
L 703 4441 
L 1819 4666 
L 2450 4666 
L 2450 531 
L 3481 531 
L 3481 0 
L 794 0 
L 794 531 
z
" transform="scale(0.015625)"/>
       </defs>
       <use xlink:href="#DejaVuSans-31"/>
       <use xlink:href="#DejaVuSans-30" x="63.623047"/>
       <use xlink:href="#DejaVuSans-30" x="127.246094"/>
      </g>
     </g>
    </g>
    <g id="text_7">
     <!-- measurement -->
     <g transform="translate(202.085288 326.280469) scale(0.15 -0.15)">
      <defs>
       <path id="DejaVuSans-6d" d="M 3328 2828 
Q 3544 3216 3844 3400 
Q 4144 3584 4550 3584 
Q 5097 3584 5394 3201 
Q 5691 2819 5691 2113 
L 5691 0 
L 5113 0 
L 5113 2094 
Q 5113 2597 4934 2840 
Q 4756 3084 4391 3084 
Q 3944 3084 3684 2787 
Q 3425 2491 3425 1978 
L 3425 0 
L 2847 0 
L 2847 2094 
Q 2847 2600 2669 2842 
Q 2491 3084 2119 3084 
Q 1678 3084 1418 2786 
Q 1159 2488 1159 1978 
L 1159 0 
L 581 0 
L 581 3500 
L 1159 3500 
L 1159 2956 
Q 1356 3278 1631 3431 
Q 1906 3584 2284 3584 
Q 2666 3584 2933 3390 
Q 3200 3197 3328 2828 
z
" transform="scale(0.015625)"/>
       <path id="DejaVuSans-65" d="M 3597 1894 
L 3597 1613 
L 953 1613 
Q 991 1019 1311 708 
Q 1631 397 2203 397 
Q 2534 397 2845 478 
Q 3156 559 3463 722 
L 3463 178 
Q 3153 47 2828 -22 
Q 2503 -91 2169 -91 
Q 1331 -91 842 396 
Q 353 884 353 1716 
Q 353 2575 817 3079 
Q 1281 3584 2069 3584 
Q 2775 3584 3186 3129 
Q 3597 2675 3597 1894 
z
M 3022 2063 
Q 3016 2534 2758 2815 
Q 2500 3097 2075 3097 
Q 1594 3097 1305 2825 
Q 1016 2553 972 2059 
L 3022 2063 
z
" transform="scale(0.015625)"/>
       <path id="DejaVuSans-61" d="M 2194 1759 
Q 1497 1759 1228 1600 
Q 959 1441 959 1056 
Q 959 750 1161 570 
Q 1363 391 1709 391 
Q 2188 391 2477 730 
Q 2766 1069 2766 1631 
L 2766 1759 
L 2194 1759 
z
M 3341 1997 
L 3341 0 
L 2766 0 
L 2766 531 
Q 2569 213 2275 61 
Q 1981 -91 1556 -91 
Q 1019 -91 701 211 
Q 384 513 384 1019 
Q 384 1609 779 1909 
Q 1175 2209 1959 2209 
L 2766 2209 
L 2766 2266 
Q 2766 2663 2505 2880 
Q 2244 3097 1772 3097 
Q 1472 3097 1187 3025 
Q 903 2953 641 2809 
L 641 3341 
Q 956 3463 1253 3523 
Q 1550 3584 1831 3584 
Q 2591 3584 2966 3190 
Q 3341 2797 3341 1997 
z
" transform="scale(0.015625)"/>
       <path id="DejaVuSans-73" d="M 2834 3397 
L 2834 2853 
Q 2591 2978 2328 3040 
Q 2066 3103 1784 3103 
Q 1356 3103 1142 2972 
Q 928 2841 928 2578 
Q 928 2378 1081 2264 
Q 1234 2150 1697 2047 
L 1894 2003 
Q 2506 1872 2764 1633 
Q 3022 1394 3022 966 
Q 3022 478 2636 193 
Q 2250 -91 1575 -91 
Q 1294 -91 989 -36 
Q 684 19 347 128 
L 347 722 
Q 666 556 975 473 
Q 1284 391 1588 391 
Q 1994 391 2212 530 
Q 2431 669 2431 922 
Q 2431 1156 2273 1281 
Q 2116 1406 1581 1522 
L 1381 1569 
Q 847 1681 609 1914 
Q 372 2147 372 2553 
Q 372 3047 722 3315 
Q 1072 3584 1716 3584 
Q 2034 3584 2315 3537 
Q 2597 3491 2834 3397 
z
" transform="scale(0.015625)"/>
       <path id="DejaVuSans-75" d="M 544 1381 
L 544 3500 
L 1119 3500 
L 1119 1403 
Q 1119 906 1312 657 
Q 1506 409 1894 409 
Q 2359 409 2629 706 
Q 2900 1003 2900 1516 
L 2900 3500 
L 3475 3500 
L 3475 0 
L 2900 0 
L 2900 538 
Q 2691 219 2414 64 
Q 2138 -91 1772 -91 
Q 1169 -91 856 284 
Q 544 659 544 1381 
z
M 1991 3584 
L 1991 3584 
z
" transform="scale(0.015625)"/>
       <path id="DejaVuSans-72" d="M 2631 2963 
Q 2534 3019 2420 3045 
Q 2306 3072 2169 3072 
Q 1681 3072 1420 2755 
Q 1159 2438 1159 1844 
L 1159 0 
L 581 0 
L 581 3500 
L 1159 3500 
L 1159 2956 
Q 1341 3275 1631 3429 
Q 1922 3584 2338 3584 
Q 2397 3584 2469 3576 
Q 2541 3569 2628 3553 
L 2631 2963 
z
" transform="scale(0.015625)"/>
       <path id="DejaVuSans-6e" d="M 3513 2113 
L 3513 0 
L 2938 0 
L 2938 2094 
Q 2938 2591 2744 2837 
Q 2550 3084 2163 3084 
Q 1697 3084 1428 2787 
Q 1159 2491 1159 1978 
L 1159 0 
L 581 0 
L 581 3500 
L 1159 3500 
L 1159 2956 
Q 1366 3272 1645 3428 
Q 1925 3584 2291 3584 
Q 2894 3584 3203 3211 
Q 3513 2838 3513 2113 
z
" transform="scale(0.015625)"/>
       <path id="DejaVuSans-74" d="M 1172 4494 
L 1172 3500 
L 2356 3500 
L 2356 3053 
L 1172 3053 
L 1172 1153 
Q 1172 725 1289 603 
Q 1406 481 1766 481 
L 2356 481 
L 2356 0 
L 1766 0 
Q 1100 0 847 248 
Q 594 497 594 1153 
L 594 3053 
L 172 3053 
L 172 3500 
L 594 3500 
L 594 4494 
L 1172 4494 
z
" transform="scale(0.015625)"/>
      </defs>
      <use xlink:href="#DejaVuSans-6d"/>
      <use xlink:href="#DejaVuSans-65" x="97.412109"/>
      <use xlink:href="#DejaVuSans-61" x="158.935547"/>
      <use xlink:href="#DejaVuSans-73" x="220.214844"/>
      <use xlink:href="#DejaVuSans-75" x="272.314453"/>
      <use xlink:href="#DejaVuSans-72" x="335.693359"/>
      <use xlink:href="#DejaVuSans-65" x="374.556641"/>
      <use xlink:href="#DejaVuSans-6d" x="436.080078"/>
      <use xlink:href="#DejaVuSans-65" x="533.492188"/>
      <use xlink:href="#DejaVuSans-6e" x="595.015625"/>
      <use xlink:href="#DejaVuSans-74" x="658.394531"/>
     </g>
    </g>
   </g>
   <g id="matplotlib.axis_2">
    <g id="ytick_1">
     <g id="line2d_7">
      <defs>
       <path id="mf854cda3d5" d="M 0 0 
L -3.5 0 
" style="stroke: #000000; stroke-width: 0.8"/>
      </defs>
      <g>
       <use xlink:href="#mf854cda3d5" x="65.571875" y="236.485764" style="stroke: #000000; stroke-width: 0.8"/>
      </g>
     </g>
     <g id="text_8">
      <!-- 0.5 -->
      <g transform="translate(34.717188 242.184592) scale(0.15 -0.15)">
       <defs>
        <path id="DejaVuSans-2e" d="M 684 794 
L 1344 794 
L 1344 0 
L 684 0 
L 684 794 
z
" transform="scale(0.015625)"/>
        <path id="DejaVuSans-35" d="M 691 4666 
L 3169 4666 
L 3169 4134 
L 1269 4134 
L 1269 2991 
Q 1406 3038 1543 3061 
Q 1681 3084 1819 3084 
Q 2600 3084 3056 2656 
Q 3513 2228 3513 1497 
Q 3513 744 3044 326 
Q 2575 -91 1722 -91 
Q 1428 -91 1123 -41 
Q 819 9 494 109 
L 494 744 
Q 775 591 1075 516 
Q 1375 441 1709 441 
Q 2250 441 2565 725 
Q 2881 1009 2881 1497 
Q 2881 1984 2565 2268 
Q 2250 2553 1709 2553 
Q 1456 2553 1204 2497 
Q 953 2441 691 2322 
L 691 4666 
z
" transform="scale(0.015625)"/>
       </defs>
       <use xlink:href="#DejaVuSans-30"/>
       <use xlink:href="#DejaVuSans-2e" x="63.623047"/>
       <use xlink:href="#DejaVuSans-35" x="95.410156"/>
      </g>
     </g>
    </g>
    <g id="ytick_2">
     <g id="line2d_8">
      <g>
       <use xlink:href="#mf854cda3d5" x="65.571875" y="179.425311" style="stroke: #000000; stroke-width: 0.8"/>
      </g>
     </g>
     <g id="text_9">
      <!-- 1.0 -->
      <g transform="translate(34.717188 185.124139) scale(0.15 -0.15)">
       <use xlink:href="#DejaVuSans-31"/>
       <use xlink:href="#DejaVuSans-2e" x="63.623047"/>
       <use xlink:href="#DejaVuSans-30" x="95.410156"/>
      </g>
     </g>
    </g>
    <g id="ytick_3">
     <g id="line2d_9">
      <g>
       <use xlink:href="#mf854cda3d5" x="65.571875" y="122.364857" style="stroke: #000000; stroke-width: 0.8"/>
      </g>
     </g>
     <g id="text_10">
      <!-- 1.5 -->
      <g transform="translate(34.717188 128.063685) scale(0.15 -0.15)">
       <use xlink:href="#DejaVuSans-31"/>
       <use xlink:href="#DejaVuSans-2e" x="63.623047"/>
       <use xlink:href="#DejaVuSans-35" x="95.410156"/>
      </g>
     </g>
    </g>
    <g id="ytick_4">
     <g id="line2d_10">
      <g>
       <use xlink:href="#mf854cda3d5" x="65.571875" y="65.304403" style="stroke: #000000; stroke-width: 0.8"/>
      </g>
     </g>
     <g id="text_11">
      <!-- 2.0 -->
      <g transform="translate(34.717188 71.003231) scale(0.15 -0.15)">
       <use xlink:href="#DejaVuSans-32"/>
       <use xlink:href="#DejaVuSans-2e" x="63.623047"/>
       <use xlink:href="#DejaVuSans-30" x="95.410156"/>
      </g>
     </g>
    </g>
    <g id="text_12">
     <!-- time [ms.] -->
     <g transform="translate(27.597656 191.558984) rotate(-90) scale(0.15 -0.15)">
      <defs>
       <path id="DejaVuSans-69" d="M 603 3500 
L 1178 3500 
L 1178 0 
L 603 0 
L 603 3500 
z
M 603 4863 
L 1178 4863 
L 1178 4134 
L 603 4134 
L 603 4863 
z
" transform="scale(0.015625)"/>
       <path id="DejaVuSans-20" transform="scale(0.015625)"/>
       <path id="DejaVuSans-5b" d="M 550 4863 
L 1875 4863 
L 1875 4416 
L 1125 4416 
L 1125 -397 
L 1875 -397 
L 1875 -844 
L 550 -844 
L 550 4863 
z
" transform="scale(0.015625)"/>
       <path id="DejaVuSans-5d" d="M 1947 4863 
L 1947 -844 
L 622 -844 
L 622 -397 
L 1369 -397 
L 1369 4416 
L 622 4416 
L 622 4863 
L 1947 4863 
z
" transform="scale(0.015625)"/>
      </defs>
      <use xlink:href="#DejaVuSans-74"/>
      <use xlink:href="#DejaVuSans-69" x="39.208984"/>
      <use xlink:href="#DejaVuSans-6d" x="66.992188"/>
      <use xlink:href="#DejaVuSans-65" x="164.404297"/>
      <use xlink:href="#DejaVuSans-20" x="225.927734"/>
      <use xlink:href="#DejaVuSans-5b" x="257.714844"/>
      <use xlink:href="#DejaVuSans-6d" x="296.728516"/>
      <use xlink:href="#DejaVuSans-73" x="394.140625"/>
      <use xlink:href="#DejaVuSans-2e" x="446.240234"/>
      <use xlink:href="#DejaVuSans-5d" x="478.027344"/>
     </g>
    </g>
   </g>
   <g id="line2d_11">
    <path d="M 82.738506 264.963642 
L 426.071132 264.963642 
" clip-path="url(#pca60ec0131)" style="fill: none; stroke: #1f77b4; stroke-width: 1.5; stroke-linecap: square"/>
   </g>
   <g id="patch_3">
    <path d="M 65.571875 289.365625 
L 65.571875 16.2 
" style="fill: none; stroke: #000000; stroke-width: 0.8; stroke-linejoin: miter; stroke-linecap: square"/>
   </g>
   <g id="patch_4">
    <path d="M 443.237763 289.365625 
L 443.237763 16.2 
" style="fill: none; stroke: #000000; stroke-width: 0.8; stroke-linejoin: miter; stroke-linecap: square"/>
   </g>
   <g id="patch_5">
    <path d="M 65.571875 289.365625 
L 443.237763 289.365625 
" style="fill: none; stroke: #000000; stroke-width: 0.8; stroke-linejoin: miter; stroke-linecap: square"/>
   </g>
   <g id="patch_6">
    <path d="M 65.571875 16.2 
L 443.237763 16.2 
" style="fill: none; stroke: #000000; stroke-width: 0.8; stroke-linejoin: miter; stroke-linecap: square"/>
   </g>
   <g id="legend_1">
    <g id="patch_7">
     <path d="M 314.10417 94.251562 
L 432.737763 94.251562 
Q 435.737763 94.251562 435.737763 91.251562 
L 435.737763 26.7 
Q 435.737763 23.7 432.737763 23.7 
L 314.10417 23.7 
Q 311.10417 23.7 311.10417 26.7 
L 311.10417 91.251562 
Q 311.10417 94.251562 314.10417 94.251562 
z
" style="fill: #ffffff; opacity: 0.8; stroke: #cccccc; stroke-linejoin: miter"/>
    </g>
    <g id="PathCollection_3">
     <g>
      <use xlink:href="#m322854086c" x="332.10417" y="37.160156" style="fill: #1f77b4; stroke: #1f77b4"/>
     </g>
    </g>
    <g id="text_13">
     <!-- hits -->
     <g transform="translate(359.10417 41.097656) scale(0.15 -0.15)">
      <defs>
       <path id="DejaVuSans-68" d="M 3513 2113 
L 3513 0 
L 2938 0 
L 2938 2094 
Q 2938 2591 2744 2837 
Q 2550 3084 2163 3084 
Q 1697 3084 1428 2787 
Q 1159 2491 1159 1978 
L 1159 0 
L 581 0 
L 581 4863 
L 1159 4863 
L 1159 2956 
Q 1366 3272 1645 3428 
Q 1925 3584 2291 3584 
Q 2894 3584 3203 3211 
Q 3513 2838 3513 2113 
z
" transform="scale(0.015625)"/>
      </defs>
      <use xlink:href="#DejaVuSans-68"/>
      <use xlink:href="#DejaVuSans-69" x="63.378906"/>
      <use xlink:href="#DejaVuSans-74" x="91.162109"/>
      <use xlink:href="#DejaVuSans-73" x="130.371094"/>
     </g>
    </g>
    <g id="PathCollection_4">
     <g>
      <use xlink:href="#mc110cb0e74" x="332.10417" y="59.177344" style="fill: #ff7f0e; stroke: #ff7f0e"/>
     </g>
    </g>
    <g id="text_14">
     <!-- misses -->
     <g transform="translate(359.10417 63.114844) scale(0.15 -0.15)">
      <use xlink:href="#DejaVuSans-6d"/>
      <use xlink:href="#DejaVuSans-69" x="97.412109"/>
      <use xlink:href="#DejaVuSans-73" x="125.195312"/>
      <use xlink:href="#DejaVuSans-73" x="177.294922"/>
      <use xlink:href="#DejaVuSans-65" x="229.394531"/>
      <use xlink:href="#DejaVuSans-73" x="290.917969"/>
     </g>
    </g>
    <g id="line2d_12">
     <path d="M 317.10417 79.882031 
L 332.10417 79.882031 
L 347.10417 79.882031 
" style="fill: none; stroke: #1f77b4; stroke-width: 1.5; stroke-linecap: square"/>
    </g>
    <g id="text_15">
     <!-- threshold -->
     <g transform="translate(359.10417 85.132031) scale(0.15 -0.15)">
      <defs>
       <path id="DejaVuSans-6f" d="M 1959 3097 
Q 1497 3097 1228 2736 
Q 959 2375 959 1747 
Q 959 1119 1226 758 
Q 1494 397 1959 397 
Q 2419 397 2687 759 
Q 2956 1122 2956 1747 
Q 2956 2369 2687 2733 
Q 2419 3097 1959 3097 
z
M 1959 3584 
Q 2709 3584 3137 3096 
Q 3566 2609 3566 1747 
Q 3566 888 3137 398 
Q 2709 -91 1959 -91 
Q 1206 -91 779 398 
Q 353 888 353 1747 
Q 353 2609 779 3096 
Q 1206 3584 1959 3584 
z
" transform="scale(0.015625)"/>
       <path id="DejaVuSans-6c" d="M 603 4863 
L 1178 4863 
L 1178 0 
L 603 0 
L 603 4863 
z
" transform="scale(0.015625)"/>
       <path id="DejaVuSans-64" d="M 2906 2969 
L 2906 4863 
L 3481 4863 
L 3481 0 
L 2906 0 
L 2906 525 
Q 2725 213 2448 61 
Q 2172 -91 1784 -91 
Q 1150 -91 751 415 
Q 353 922 353 1747 
Q 353 2572 751 3078 
Q 1150 3584 1784 3584 
Q 2172 3584 2448 3432 
Q 2725 3281 2906 2969 
z
M 947 1747 
Q 947 1113 1208 752 
Q 1469 391 1925 391 
Q 2381 391 2643 752 
Q 2906 1113 2906 1747 
Q 2906 2381 2643 2742 
Q 2381 3103 1925 3103 
Q 1469 3103 1208 2742 
Q 947 2381 947 1747 
z
" transform="scale(0.015625)"/>
      </defs>
      <use xlink:href="#DejaVuSans-74"/>
      <use xlink:href="#DejaVuSans-68" x="39.208984"/>
      <use xlink:href="#DejaVuSans-72" x="102.587891"/>
      <use xlink:href="#DejaVuSans-65" x="141.451172"/>
      <use xlink:href="#DejaVuSans-73" x="202.974609"/>
      <use xlink:href="#DejaVuSans-68" x="255.074219"/>
      <use xlink:href="#DejaVuSans-6f" x="318.453125"/>
      <use xlink:href="#DejaVuSans-6c" x="379.634766"/>
      <use xlink:href="#DejaVuSans-64" x="407.417969"/>
     </g>
    </g>
   </g>
  </g>
 </g>
 <defs>
  <clipPath id="pca60ec0131">
   <rect x="65.571875" y="16.2" width="377.665888" height="273.165625"/>
  </clipPath>
 </defs>
</svg>
